<?xml version="1.0" encoding="UTF-8"?>
<svg id="Layer_1" xmlns="http://www.w3.org/2000/svg" version="1.1" viewBox="0 0 122.7 121.36">
  <!-- Generator: Adobe Illustrator 30.1.0, SVG Export Plug-In . SVG Version: 2.1.1 Build 136)  -->
  <defs>
    <style>
      .st0 {
        fill: #ffa300;
      }
    </style>
  </defs>
  <g>
    <path class="st0" d="M97.98,21.68l.37-.82c1.13-2.52,1.11-5.4-.04-7.9l-1.21-2.64-2.79.87c-2.65.82-4.81,2.74-5.94,5.26l-.37.82c-1.13,2.52-1.11,5.4.04,7.9l1.21,2.64,2.79-.87c2.65-.82,4.81-2.74,5.94-5.26Z"/>
    <path class="st0" d="M111.81,43.48l.71-.55c2.19-1.7,3.54-4.25,3.7-7l.17-2.89-2.87-.53c-2.73-.51-5.55.18-7.73,1.87l-.71.55c-2.19,1.7-3.54,4.25-3.7,7l-.17,2.89,2.87.53c2.73.51,5.55-.18,7.73-1.87Z"/>
    <path class="st0" d="M113.71,69.16l.89-.16c2.73-.48,5.13-2.1,6.58-4.45l1.52-2.47-2.28-1.81c-2.17-1.72-4.98-2.43-7.71-1.95l-.89.16c-2.73.48-5.13,2.1-6.58,4.45l-1.52,2.47,2.28,1.81c2.17,1.72,4.98,2.43,7.71,1.95Z"/>
    <path class="st0" d="M103.24,92.73l.86.28c2.64.85,5.52.54,7.91-.87l2.51-1.48-1.16-2.66c-1.1-2.53-3.25-4.47-5.89-5.32l-.86-.28c-2.64-.85-5.52-.54-7.91.87l-2.51,1.48,1.16,2.66c1.1,2.53,3.25,4.47,5.89,5.32Z"/>
    <path class="st0" d="M82.86,108.66l.63.65c1.93,1.98,4.62,3.05,7.4,2.92l2.92-.13.23-2.89c.22-2.75-.76-5.46-2.68-7.44l-.63-.65c-1.93-1.98-4.62-3.05-7.4-2.92l-2.92.13-.23,2.89c-.22,2.75.76,5.46,2.68,7.44Z"/>
    <path class="st0" d="M57.33,113.22l.25.87c.77,2.65,2.64,4.85,5.15,6.03l2.64,1.24,1.57-2.44c1.5-2.32,1.91-5.17,1.15-7.82l-.25-.87c-.77-2.65-2.64-4.85-5.15-6.03l-2.64-1.24-1.57,2.44c-1.5,2.32-1.91,5.17-1.15,7.82Z"/>
    <path class="st0" d="M32.64,105.35l-.19.88c-.58,2.7.04,5.51,1.69,7.72l1.74,2.33,2.54-1.42c2.42-1.35,4.13-3.67,4.71-6.37l.19-.88c.58-2.7-.04-5.51-1.69-7.72l-1.74-2.33-2.54,1.42c-2.42,1.35-4.13,3.67-4.71,6.37Z"/>
    <path class="st0" d="M14.55,86.89l-.58.69c-1.78,2.11-2.57,4.88-2.15,7.61l.44,2.87,2.92-.07c2.78-.07,5.39-1.32,7.17-3.43l.58-.69c1.78-2.11,2.57-4.88,2.15-7.61l-.44-2.87-2.92.07c-2.78.07-5.39,1.32-7.17,3.43Z"/>
    <path class="st0" d="M7.31,62.16l-.84.34c-2.57,1.03-4.58,3.11-5.5,5.71l-.97,2.73,2.61,1.3c2.48,1.23,5.38,1.35,7.95.32l.84-.34c2.57-1.03,4.58-3.11,5.5-5.71l.97-2.73-2.61-1.3c-2.48-1.23-5.38-1.35-7.95-.32Z"/>
    <path class="st0" d="M12.61,36.95l-.9-.09c-2.76-.29-5.51.62-7.56,2.48l-2.15,1.96,1.69,2.36c1.61,2.25,4.11,3.7,6.87,3.99l.9.09c2.76.29,5.51-.62,7.56-2.48l2.15-1.96-1.69-2.36c-1.61-2.25-4.11-3.7-6.87-3.99Z"/>
    <path class="st0" d="M29.21,17.16l-.75-.5c-2.3-1.54-5.16-2.03-7.85-1.33l-2.83.73.38,2.88c.36,2.73,1.88,5.18,4.18,6.72l.75.5c2.3,1.54,5.16,2.03,7.85,1.33l2.83-.73-.38-2.88c-.36-2.73-1.88-5.18-4.18-6.72Z"/>
    <path class="st0" d="M53.23,7.42l-.43-.8c-1.3-2.43-3.6-4.19-6.3-4.83l-2.84-.67-1.03,2.71c-.98,2.58-.79,5.45.51,7.89l.43.8c1.3,2.43,3.6,4.19,6.3,4.83l2.84.67,1.03-2.71c.98-2.58.79-5.45-.51-7.89Z"/>
    <path class="st0" d="M79.03,10.02v-.9c0-2.76-1.19-5.38-3.27-7.2l-2.19-1.92-2.19,1.92c-2.08,1.82-3.27,4.45-3.27,7.2v.9c0,2.76,1.19,5.38,3.27,7.2l2.19,1.92,2.19-1.92c2.08-1.82,3.27-4.45,3.27-7.2Z"/>
  </g>
  <g>
    <path class="st0" d="M83.85,40.02l.99-.82c1.3-1.08,2.01-2.59,1.94-4.16l-.08-2.17-2.45-.2c-1.78-.14-3.54.39-4.84,1.47l-.99.82c-1.3,1.08-2.01,2.59-1.94,4.16l.08,2.17,2.45.2c1.78.14,3.54-.39,4.84-1.47Z"/>
    <path class="st0" d="M92.08,51.9l1.31-.32c1.72-.42,3.16-1.46,3.94-2.87l1.08-1.95-2.06-1.19c-1.49-.86-3.34-1.11-5.06-.7l-1.31.32c-1.72.42-3.16,1.46-3.94,2.87l-1.08,1.95,2.06,1.19c1.49.86,3.34,1.11,5.06.7Z"/>
    <path class="st0" d="M92.99,65.78l1.33.26c1.74.34,3.57.01,5.01-.91l1.99-1.27-1.19-1.9c-.86-1.38-2.35-2.36-4.09-2.7l-1.33-.26c-1.74-.34-3.57-.01-5.01.91l-1.99,1.27,1.19,1.9c.86,1.38,2.35,2.36,4.09,2.7Z"/>
    <path class="st0" d="M86.38,78.41l1.03.78c1.36,1.02,3.14,1.48,4.91,1.27l2.44-.3-.03-2.17c-.02-1.57-.82-3.05-2.17-4.08l-1.03-.78c-1.36-1.02-3.14-1.48-4.91-1.27l-2.44.3.03,2.17c.02,1.57.82,3.05,2.17,4.08Z"/>
    <path class="st0" d="M73.8,86.84l.5,1.11c.65,1.46,1.98,2.61,3.66,3.14l2.32.74,1.13-1.93c.82-1.4.91-3.03.26-4.49l-.5-1.11c-.65-1.46-1.98-2.61-3.66-3.14l-2.32-.74-1.13,1.93c-.82,1.4-.91,3.03-.26,4.49Z"/>
    <path class="st0" d="M58.19,89.09l-.16,1.19c-.21,1.56.36,3.12,1.55,4.29l1.65,1.61,2.02-1.24c1.47-.9,2.42-2.3,2.63-3.86l.16-1.19c.21-1.56-.36-3.12-1.55-4.29l-1.65-1.61-2.02,1.24c-1.47.9-2.42,2.3-2.63,3.86Z"/>
    <path class="st0" d="M43.2,84.64l-.77.98c-1.01,1.29-1.35,2.9-.92,4.43l.59,2.1,2.45-.26c1.77-.19,3.37-1.03,4.38-2.32l.77-.98c1.01-1.29,1.35-2.9.92-4.43l-.59-2.1-2.45.26c-1.77.19-3.37,1.03-4.38,2.32Z"/>
    <path class="st0" d="M32.35,74.52l-1.21.55c-1.59.72-2.74,2.01-3.17,3.53l-.6,2.1,2.3.78c1.66.57,3.53.48,5.11-.24l1.21-.55c1.59-.72,2.74-2.01,3.17-3.53l.6-2.1-2.3-.78c-1.66-.57-3.53-.48-5.11.24Z"/>
    <path class="st0" d="M28.17,61.11h-1.36c-1.79-.03-3.49.63-4.69,1.79l-1.65,1.61,1.61,1.64c1.17,1.19,2.86,1.88,4.64,1.9h1.36c1.79.03,3.49-.63,4.69-1.79l1.65-1.61-1.61-1.64c-1.17-1.19-2.86-1.88-4.64-1.9Z"/>
    <path class="st0" d="M31.65,47.54l-1.19-.57c-1.57-.75-3.43-.88-5.1-.34l-2.32.74.55,2.11c.4,1.53,1.52,2.84,3.09,3.59l1.19.57c1.57.75,3.43.88,5.1.34l2.32-.74-.55-2.11c-.4-1.53-1.52-2.84-3.09-3.59Z"/>
    <path class="st0" d="M41.96,37l-.75-1c-.98-1.31-2.56-2.19-4.33-2.41l-2.44-.3-.65,2.09c-.47,1.51-.17,3.13.81,4.44l.75,1c.98,1.31,2.56,2.19,4.33,2.41l2.44.3.65-2.09c.47-1.51.17-3.13-.81-4.44Z"/>
    <path class="st0" d="M56.7,31.94l-.13-1.19c-.17-1.56-1.09-2.99-2.53-3.91l-1.99-1.27-1.69,1.58c-1.22,1.14-1.83,2.69-1.66,4.26l.13,1.19c.17,1.56,1.09,2.99,2.53,3.91l1.99,1.27,1.69-1.58c1.22-1.14,1.83-2.69,1.66-4.26Z"/>
    <path class="st0" d="M72.41,33.56l.52-1.1c.69-1.45.63-3.09-.15-4.5l-1.08-1.95-2.33.7c-1.69.51-3.05,1.63-3.74,3.07l-.52,1.1c-.69,1.45-.63,3.09.15,4.5l1.08,1.95,2.33-.7c1.69-.51,3.05-1.63,3.74-3.07Z"/>
  </g>
  <g>
    <path class="st0" d="M70.4,51.31l.59-.62c.47-.49.68-1.14.58-1.79l-.19-1.24-1.31-.06c-.69-.03-1.36.23-1.83.72l-.59.62c-.47.49-.68,1.14-.58,1.79l.19,1.24,1.31.06c.69.03,1.36-.23,1.83-.72Z"/>
    <path class="st0" d="M74.51,57.67l.83-.28c.65-.22,1.16-.71,1.4-1.33l.45-1.18-1.13-.64c-.59-.34-1.31-.4-1.97-.18l-.83.28c-.65.22-1.16.71-1.4,1.33l-.45,1.18,1.13.64c.59.34,1.31.4,1.97.18Z"/>
    <path class="st0" d="M75,65.13l.87.12c.68.1,1.38-.1,1.89-.55l.98-.84-.68-1.07c-.36-.56-.96-.94-1.64-1.04l-.87-.12c-.68-.1-1.38.1-1.89.55l-.98.84.68,1.07c.36.56.96.94,1.64,1.04Z"/>
    <path class="st0" d="M71.75,71.93l.71.5c.56.39,1.27.52,1.94.36l1.27-.3-.07-1.25c-.04-.66-.38-1.26-.94-1.65l-.71-.5c-.56-.39-1.27-.52-1.94-.36l-1.27.3.07,1.25c.04.66.38,1.26.94,1.65Z"/>
    <path class="st0" d="M65.53,76.49l.38.75c.3.59.86,1.03,1.53,1.19l1.28.3.55-1.13c.29-.6.29-1.29-.01-1.88l-.38-.75c-.3-.59-.86-1.03-1.53-1.19l-1.28-.3-.55,1.13c-.29.6-.29,1.29.01,1.88Z"/>
    <path class="st0" d="M57.78,77.73l-.04.84c-.03.66.25,1.29.77,1.73l.98.83,1.05-.76c.55-.4.89-1.01.92-1.66l.04-.84c.03-.66-.25-1.29-.77-1.73l-.98-.83-1.05.76c-.55.4-.89,1.01-.92,1.66Z"/>
    <path class="st0" d="M50.33,75.37l-.44.72c-.35.57-.41,1.25-.18,1.87l.45,1.17,1.3-.2c.68-.1,1.28-.49,1.63-1.06l.44-.72c.35-.57.41-1.25.18-1.87l-.45-1.17-1.3.2c-.68.1-1.28.49-1.63,1.06Z"/>
    <path class="st0" d="M44.92,69.95l-.75.44c-.59.34-.98.92-1.08,1.57l-.18,1.24,1.24.4c.65.21,1.37.14,1.96-.21l.75-.44c.59-.34.98-.92,1.08-1.57l.18-1.24-1.24-.4c-.65-.21-1.37-.14-1.96.21Z"/>
    <path class="st0" d="M42.81,62.76l-.88.05c-.69.04-1.32.37-1.73.91l-.77,1.01.9.91c.47.48,1.15.73,1.84.69l.88-.05c.69-.04,1.32-.37,1.73-.91l.77-1.01-.9-.91c-.47-.48-1.15-.73-1.84-.69Z"/>
    <path class="st0" d="M44.5,55.46l-.8-.34c-.63-.27-1.35-.26-1.97.03l-1.18.55.34,1.21c.18.63.65,1.16,1.28,1.43l.8.34c.63.27,1.35.26,1.97-.03l1.18-.55-.34-1.21c-.18-.63-.65-1.16-1.28-1.43Z"/>
    <path class="st0" d="M49.59,49.77l-.54-.66c-.42-.52-1.07-.83-1.76-.86l-1.31-.04-.29,1.22c-.15.64,0,1.31.42,1.83l.54.66c.42.52,1.07.83,1.76.86l1.31.04.29-1.22c.15-.64,0-1.31-.42-1.83Z"/>
    <path class="st0" d="M56.9,47.03l-.15-.82c-.12-.65-.53-1.21-1.13-1.54l-1.14-.62-.86.95c-.45.5-.65,1.16-.53,1.81l.15.82c.12.65.53,1.21,1.13,1.54l1.14.62.86-.95c.45-.5.65-1.16.53-1.81Z"/>
    <path class="st0" d="M64.7,47.86l.28-.79c.22-.62.13-1.31-.24-1.86l-.7-1.06-1.23.45c-.64.24-1.14.74-1.36,1.36l-.28.79c-.22.62-.13,1.31.24,1.86l.7,1.06,1.23-.45c.64-.24,1.14-.74,1.36-1.36Z"/>
  </g>
</svg>