<?xml version="1.0" encoding="utf-8"?>
<!-- Generator: Adobe Illustrator 23.0.2, SVG Export Plug-In . SVG Version: 6.00 Build 0)  -->
<svg version="1.1" xmlns="http://www.w3.org/2000/svg" xmlns:xlink="http://www.w3.org/1999/xlink" x="0px" y="0px"
	 viewBox="0 0 387.06 188" style="enable-background:new 0 0 387.06 188;" xml:space="preserve">
<style type="text/css">
	.st0{fill:#FFFFFF;}
	.st1{fill:#FF8308;}
</style>
<g id="Layer_1">
	<g id="Layer_3">
	</g>
	<rect x="1" y="-1" class="st0" width="387" height="188"/>
</g>
<g id="Layer_2">
	<path d="M266.55,100.59c0-18.33,0-36.21,0-54.44c-1.18-0.05-2.24-0.14-3.29-0.14c-7.6-0.01-15.2,0-22.8-0.01
		c-8.08-0.01-11.93-3.85-11.96-11.98c-0.03-7.8-0.1-15.6,0.05-23.4c0.05-2.46-0.88-3.05-3.12-3.05
		c-33.7,0.04-67.39,0.01-101.09,0.05c-6.56,0.01-10.2,3.73-10.2,10.27c-0.03,19.2-0.01,38.4-0.02,57.59c0,1,0.27,2.22-0.2,2.93
		c-0.61,0.92-1.83,1.92-2.82,1.96c-0.75,0.03-1.74-1.28-2.28-2.2c-0.35-0.6-0.11-1.56-0.11-2.36c0-19,0.25-38-0.1-56.99
		c-0.19-10.5,7.53-16.83,16.81-16.75c32.89,0.27,65.79,0.16,98.69,0.06c5.57-0.02,10.03,1.85,13.91,5.78
		c9.4,9.55,18.84,19.06,28.44,28.4c4.01,3.9,5.76,8.33,5.71,13.89c-0.16,15.6-0.06,31.2-0.06,46.8c0,1.09,0,2.18,0,3.31
		c0.94,0.26,1.7,0.48,2.45,0.68c4.89,1.33,8.17,5.39,8.21,10.5c0.08,8.8,0.02,17.6,0.04,26.4c0,2.03-0.12,4.08-2.8,4.01
		c-2.67-0.08-2.63-2.19-2.63-4.17c0.02-8,0.01-16,0.01-24c-0.01-5.9-1.83-7.74-7.69-7.74c-34.5-0.01-68.99-0.07-103.49,0.06
		c-5.98,0.02-10.92-1.79-14.37-6.54c-3.62-4.99-8.2-6.58-14.22-6.32c-8.98,0.39-17.99,0.08-26.99,0.11
		c-5.28,0.01-7.21,1.96-7.21,7.28c-0.01,24.5-0.01,49,0,73.49c0,5.26,2.23,7.49,7.49,7.5c52.99,0.01,105.99,0.01,158.98,0
		c5.26,0,7.47-2.23,7.49-7.5c0.03-6.9,0.03-13.8-0.01-20.7c-0.01-2.08,0.24-4.05,2.84-3.98c2.42,0.07,2.59,2.01,2.59,3.94
		c-0.02,7.1,0.04,14.2-0.02,21.3c-0.07,7.78-4.59,12.34-12.36,12.35c-53.4,0.03-106.79,0.03-160.19,0c-7.57,0-12.2-4.61-12.22-12.17
		c-0.06-25.2-0.04-50.4,0-75.59c0.01-6.33,4.51-11.15,10.84-11.24c11.5-0.16,23-0.08,34.49,0.01c4.04,0.03,7.56,1.81,9.77,5.06
		c4.33,6.38,10.19,7.76,17.57,7.68c30.69-0.33,61.39-0.14,92.09-0.14C263.97,100.59,265.15,100.59,266.55,100.59z M261.47,40.45
		c-9.13-9.13-18.32-18.32-27.4-27.4c0,7.49-0.1,15.44,0.06,23.39c0.05,2.59,2.05,3.93,4.48,3.97
		C246.37,40.52,254.14,40.45,261.47,40.45z"/>
	<path d="M181.63,58.62c0,5.49,0.02,10.98-0.01,16.47c-0.03,5.37-3.11,8.51-8.44,8.53c-8.75,0.03-17.5,0.03-26.26,0
		c-5.35-0.02-8.49-3.1-8.52-8.47c-0.05-10.98-0.05-21.97,0-32.95c0.03-5.46,3.01-8.46,8.45-8.5c8.75-0.06,17.5-0.06,26.26,0
		c5.58,0.03,8.49,3.06,8.51,8.69C181.64,47.81,181.63,53.22,181.63,58.62z M150.66,63.26c-2.54-5.96-1.64-11.32,2.43-14.51
		c3.9-3.05,9.35-3.18,13.42-0.32c4.41,3.1,5.41,8.2,2.97,14.91c2.46,1.75,4.89,3.49,7.49,5.35c0-8.98,0.03-17.74-0.01-26.49
		c-0.01-2.75-1.13-3.82-4.01-3.84c-8.58-0.05-17.17-0.04-25.75,0c-3.06,0.01-4.12,1.14-4.14,4.28c-0.04,5.84-0.01,11.67-0.01,17.51
		c0,2.79,0,5.59,0,8.59C145.71,66.83,148.1,65.11,150.66,63.26z M159.77,78.98c4.54,0,9.09,0.06,13.63-0.02
		c2.85-0.05,3.5-1.26,2.15-3.67c-1.82-3.24-4.33-5.81-7.77-7.19c-1.36-0.55-3.05-0.36-4.59-0.37c-1.94-0.02-4.05,0.58-5.78,0.01
		c-2.43-0.8-4.49-0.5-6.24,0.95c-2.33,1.94-4.61,4.05-6.44,6.45c-1.9,2.5-1.05,3.79,2.19,3.83
		C151.19,79.02,155.48,78.98,159.77,78.98z M160.13,51.1c-3.61-0.03-6.39,2.66-6.4,6.23c-0.01,3.37,2.8,6.2,6.2,6.25
		c3.4,0.05,6.32-2.7,6.41-6.04C166.43,53.98,163.69,51.13,160.13,51.1z"/>
	<path class="st1" d="M219.54,80.1c-7.12,0-14.24-0.02-21.36,0.01c-1.76,0.01-3.56-0.15-3.53-2.34c0.03-2.12,1.83-2.39,3.58-2.39
		c14.15,0,28.3,0,42.45,0.01c0.26,0,0.52-0.01,0.77,0.01c1.62,0.11,2.99,0.7,2.89,2.54c-0.09,1.66-1.36,2.17-2.94,2.17
		C234.12,80.08,226.83,80.1,219.54,80.1z"/>
	<path class="st1" d="M219.54,66.74c-7.12,0-14.24-0.01-21.36,0.01c-1.74,0.01-3.57-0.14-3.53-2.34c0.04-2.12,1.83-2.38,3.58-2.38
		c14.15,0.01,28.3,0.01,42.45,0.01c0.26,0,0.52-0.04,0.77-0.02c1.59,0.14,3,0.71,2.9,2.56c-0.09,1.68-1.39,2.17-2.95,2.16
		C234.12,66.73,226.83,66.74,219.54,66.74z"/>
	<path class="st0" d="M150.66,63.26c-2.56,1.85-4.95,3.58-7.61,5.5c0-3,0-5.79,0-8.59c0-5.84-0.03-11.67,0.01-17.51
		c0.02-3.15,1.08-4.27,4.14-4.28c8.58-0.04,17.17-0.04,25.75,0c2.89,0.02,4,1.09,4.01,3.84c0.04,8.75,0.01,17.5,0.01,26.49
		c-2.6-1.86-5.03-3.59-7.49-5.35c2.44-6.71,1.43-11.81-2.97-14.91c-4.07-2.86-9.52-2.74-13.42,0.32
		C149.02,51.93,148.12,57.3,150.66,63.26z"/>
	<path class="st1" d="M159.77,78.98c-4.28,0-8.57,0.04-12.85-0.01c-3.24-0.04-4.09-1.33-2.19-3.83c1.83-2.4,4.11-4.51,6.44-6.45
		c1.74-1.45,3.81-1.75,6.24-0.95c1.74,0.57,3.84-0.04,5.78-0.01c1.54,0.02,3.23-0.17,4.59,0.37c3.44,1.38,5.95,3.95,7.77,7.19
		c1.35,2.41,0.71,3.62-2.15,3.67C168.85,79.04,164.31,78.98,159.77,78.98z"/>
	<path class="st1" d="M160.13,51.1c3.56,0.03,6.31,2.88,6.21,6.43c-0.09,3.34-3.01,6.09-6.41,6.04c-3.4-0.05-6.21-2.88-6.2-6.25
		C153.74,53.76,156.51,51.06,160.13,51.1z"/>
</g>
</svg>
