<?xml version="1.0" encoding="utf-8"?>
<!-- Generator: Adobe Illustrator 23.0.2, SVG Export Plug-In . SVG Version: 6.00 Build 0)  -->
<svg version="1.1" xmlns="http://www.w3.org/2000/svg" xmlns:xlink="http://www.w3.org/1999/xlink" x="0px" y="0px"
	 viewBox="0 0 731 537" style="enable-background:new 0 0 731 537;" xml:space="preserve">
<style type="text/css">
	.st0{fill:#FFFFFF;stroke:#ABABAB;stroke-miterlimit:10;}
	.st1{fill:#4C4C4C;}
	.st2{opacity:0.4;fill:#D6D8E5;enable-background:new    ;}
	.st3{fill:#3A2C6D;}
	.st4{fill:#FFCEA9;}
	.st5{fill:#F4F4F4;}
	.st6{fill:#38226D;}
	.st7{fill:#9C73FF;}
	.st8{fill:#750E5C;}
	.st9{fill:#EDEDED;}
	.st10{fill:#2B2A30;}
	.st11{fill:#BF4B4B;}
	.st12{fill:#7A130D;}
	.st13{enable-background:new    ;}
	.st14{clip-path:url(#SVGID_2_);enable-background:new    ;}
	.st15{fill:#1B6736;}
	.st16{fill:#1C6B38;}
	.st17{fill:#1D6F3A;}
	.st18{fill:#155CB4;}
	.st19{fill:#1F773E;}
	.st20{fill:#1E733C;}
	.st21{fill:#1777CF;}
	.st22{clip-path:url(#SVGID_4_);enable-background:new    ;}
	.st23{clip-path:url(#SVGID_6_);enable-background:new    ;}
	.st24{fill:#35A4E8;}
	.st25{fill:#188CE5;}
	.st26{clip-path:url(#SVGID_8_);enable-background:new    ;}
	.st27{fill:#741C17;}
	.st28{fill:#791D18;}
	.st29{fill:#7D1E19;}
	.st30{fill:#1387CE;}
	.st31{clip-path:url(#SVGID_10_);enable-background:new    ;}
	.st32{fill:#821F1A;}
	.st33{fill:#87D3F2;}
	.st34{clip-path:url(#SVGID_12_);enable-background:new    ;}
	.st35{fill:#857800;}
	.st36{fill:#8A7C00;}
	.st37{clip-path:url(#SVGID_14_);enable-background:new    ;}
	.st38{fill:#948500;}
	.st39{clip-path:url(#SVGID_16_);enable-background:new    ;}
	.st40{clip-path:url(#SVGID_18_);enable-background:new    ;}
	.st41{fill:#0E5185;}
	.st42{clip-path:url(#SVGID_20_);}
	.st43{clip-path:url(#SVGID_22_);enable-background:new    ;}
	.st44{fill:#944B06;}
	.st45{clip-path:url(#SVGID_24_);enable-background:new    ;}
	.st46{clip-path:url(#SVGID_26_);enable-background:new    ;}
	.st47{fill:#4E7A8C;}
	.st48{clip-path:url(#SVGID_28_);enable-background:new    ;}
	.st49{fill:#F76900;}
	.st50{fill:#FF9831;}
	.st51{clip-path:url(#SVGID_30_);enable-background:new    ;}
	.st52{fill:#0E5489;}
	.st53{fill:#0A095A;}
	.st54{fill:#FF6E00;}
	.st55{fill:#FF4136;}
</style>
<g id="Layer_2">
	<rect x="0.5" y="0.5" class="st0" width="730" height="536"/>
</g>
<g id="Layer_1">
	<rect x="2.43" y="1.49" class="st1" width="727.41" height="534.86"/>
	<g>
		<g id="Girl_8_1_">
			
				<ellipse transform="matrix(0.0562 -0.9984 0.9984 0.0562 57.5831 524.2512)" class="st2" cx="306.09" cy="231.67" rx="19.82" ry="34.28"/>
			<path id="_Контур_27_2_" class="st3" d="M317.97,46.72c-1.25-2.28-11.65-4.32-15.6,4.38c-1.49,3.3-1.77,11.93-3.18,17.28
				s-4.14,8.28-5.25,12.63c-1.11,4.35-0.09,11.78,10.41,13.69c10.5,1.91,18.84-1.37,21.53-4.61c2.69-3.24,3.14-10.43,0.81-14.39
				c-2.33-3.96-4.13-7.25-3.85-12.34L317.97,46.72z"/>
			<path class="st4" d="M328.43,84.64c0,0,1.5,17.77-3.9,29.9s-3.21-3.41-3.21-3.41l1.34-3.65c0,0,1.74-14.3,1.54-17.84
				c-0.19-3.54,0.06-6.56-0.16-6.86s0.97-0.79,1.47-0.84S328.43,84.64,328.43,84.64z"/>
			<path id="_Контур_28_2_" class="st3" d="M311.13,44.81c0,0,8.02-1.84,12.56,2.71c3.05,3.15,4.1,7.73,2.72,11.9
				c-0.77,2.46-2.25,5.8-4.23,5.82S311.13,44.81,311.13,44.81z"/>
			<path id="_Контур_29_2_" class="st4" d="M306.9,66.27c0,0,0.02,8.83-0.18,9.47c-0.2,0.64-3.51,1.08-4.49,1.79
				c-0.98,0.72,4.24,9.97,7.07,11.46s12-1.39,12.87-5.84c0.8-4.08-2.15-7.45-3.31-8.64c-0.82-0.1-1.65-0.15-2.47-0.14l-0.02-4.27
				C312.51,68.48,306.9,66.27,306.9,66.27z"/>
			<path id="_Контур_30_2_" class="st5" d="M305.12,76.43c-2.5,0.25-5.39,1.41-5.86,2.7c-1.29,4.82-1.33,9.9-0.11,14.74
				c1.82,5.78,3.05,9.48,4.15,11.99c0,0,10.44,5.13,19.35,0.31c0,0,0.94-6.01,1.16-9.28c8.35-6.5,2.03-15.46-4.34-22.5
				c-0.8-0.11-1.62-0.15-2.43-0.14c0,0,5.63,7.47,1.2,11.28C309.45,82.32,307.9,78.2,305.12,76.43z"/>
			<path id="_Контур_31_2_" class="st4" d="M323.94,56.19L323.94,56.19c-0.57-5.71-4.41-10.22-10.26-10.2
				c-6.2-0.05-11.27,4.93-11.32,11.14c-0.03,3.6,1.66,6.99,4.54,9.13c0.15,0.86,0.41,1.71,0.75,2.51c1.93,2.53,7.32,4.37,9.14,4.48
				c1.51,0.08,2.99-1.27,4.59-3.62C324.74,64.68,324.27,59.02,323.94,56.19z"/>
			<path class="st3" d="M311.88,46c-4.13,0.57-7.56,1.53-8.9,5.48c-0.91,2.74-2.2,7.95-1.38,10.23l0.48,1.65l4.81,2.91
				c0,0,2.42-1.8,2.01-7.46c0.08-0.76,0.36-1.49,0.81-2.11c0.34-0.51,0.61-1.08,0.79-1.67c0.67-1.49,1.88-2.67,3.39-3.29
				c3.81-1.86,9.07,0.22,9.81,1.02C321.88,47.97,316.93,45.14,311.88,46z"/>
			<path id="_Контур_32_2_" class="st4" d="M296.84,117.22c-0.6-5.79-2.11-9.6-1.13-12.72c2.14-6.28,4.82-12.37,8.01-18.19
				c2.01-3.46,1.59-5.97-0.2-7.5c-2.03-1.63-4.07-1.12-6.2,2.68c-2.68,4.83-5.65,9.79-7.37,17.12c-1.11,4.74-1.32,9.65-0.63,14.47
				c0.53,5.2,1.99,8.19,3.67,13.13C293.45,127.63,297.35,122.16,296.84,117.22z"/>
			<path class="st6" d="M294.42,224.41c1.97,1.79,5.27,0.81,5.41,0.97c2.29,2.21,4.69,4.29,7.22,6.22c1.24,1.08,3.17,2.56,2.7,4.5
				c-0.84,3.45-6.36,2.07-8.42,0.88c-2.05-1.19-3.66-3.05-5.58-4.4c-1.38-0.97-2.75-1.5-2.84-3.31
				C292.83,228.16,294.06,224.34,294.42,224.41z"/>
			<path class="st7" d="M292.98,228.54c0.17,1.74,1.52,2.3,2.85,3.19c1.95,1.37,3.63,3.23,5.68,4.47s6.69,2.35,8.19-0.07
				c-0.93,3.33-6.36,1.96-8.38,0.79c-2.02-1.17-3.66-3.05-5.58-4.4c-1.38-0.97-2.75-1.5-2.84-3.31
				C292.91,228.98,292.94,228.75,292.98,228.54z"/>
			<path class="st6" d="M309.11,222.31c1.8,1.62,4.71,0.95,4.84,1.11c2.1,2.01,4.32,3.91,6.63,5.68c1.14,0.99,2.89,2.34,2.48,4.11
				c-0.78,3.17-5.84,1.9-7.72,0.81c-1.88-1.09-3.35-2.79-5.12-4.03c-1.25-0.89-2.51-1.38-2.63-3.04
				C307.53,225.93,308.76,222.26,309.11,222.31z"/>
			<path class="st7" d="M307.68,226.27c0.17,1.6,1.4,2.09,2.65,2.98c1.79,1.25,3.33,3.01,5.2,4.1c1.88,1.09,6.13,2.15,7.57-0.06
				c-0.85,2.98-5.82,1.79-7.61,0.72s-3.35-2.79-5.12-4.03c-1.25-0.89-2.51-1.38-2.63-3.04C307.7,226.72,307.68,226.5,307.68,226.27z
				"/>
			<path class="st4" d="M325.66,126.57c-0.52-7.2-2.56-17.72-2.56-17.72c-2.55,1.03-5.28,1.55-8.03,1.53
				c-4.01-0.25-7.99-0.87-11.89-1.85c-1.42,2.18-2.95,4.29-4.59,6.3c-2.21,2.74-6.54,8.72-6.21,19.79
				c0.22,7.18,2.53,37.78,2.53,37.78c-1.84,5.02-2.97,10.28-3.34,15.62c0.01,6.36,0.49,12.72,1.45,19.01l1.42,17.38
				c0,0,3.05,2.47,5.41,0.97l0.66-16.89c0.5-4.11,1.25-10.17,1.74-14.05c0.78-6.31,2.43-16.3,2.95-18.8
				c0.52-2.5,1.52-6.84,2.17-11.74c0.65-4.9,3.91-29.78,3.91-29.78l-0.01,4.7c0,0-0.17,7.57,0.39,17.05
				c0.56,9.49,0.75,13.68,0.75,13.68c-1.14,1.83-1.97,3.83-2.48,5.92c-0.31,2.01-3.52,17.98-2.59,26.16l1.65,20.84
				c1.38,1.07,3.19,1.41,4.87,0.93l2.85-20.81c1.56-7.9,4.88-24.62,5.36-26.79c1.05-4.37,1.78-8.81,2.17-13.29
				C325.27,153.47,326.16,133.76,325.66,126.57z"/>
			<path class="st8" d="M303.3,105.9l-6.83,12.01c0,0-10.15,13.22-2.42,49.08l-2.44,10.79c0,0,17.72,12.86,30.69,1.73
				c0,0,6.1-32.4,4.66-47.57c-0.77-8.73-2.21-17.39-4.3-25.89c0,0-3.2,3.17-18.57,0.09"/>
			<path class="st9" d="M293.23,88.3c0,0,4.03,4.5,9.13,4.26l2.9-8.2c0,0,1.75-4.25-1.76-6.36
				C299.98,75.89,295.83,79.93,293.23,88.3z"/>
			<path class="st9" d="M319.47,74.43c0,0,4.97-1.24,9.54,9.92l-2,1.05C324.8,81.54,322.27,77.88,319.47,74.43z"/>
		</g>
		<g id="Men_13_1_">
			
				<ellipse transform="matrix(0.0562 -0.9984 0.9984 0.0562 367.152 829.2916)" class="st2" cx="622.22" cy="220.44" rx="19.82" ry="34.28"/>
			<path class="st10" d="M638.62,216.38c-2.44,1.77-5.79-0.16-5.96,0.01c-2.89,2.38-5.9,4.62-9.01,6.69
				c-1.57,1.06-3.88,2.46-3.58,4.69c0.5,3.97,6.86,3.11,9.31,2.04c2.45-1.07,4.49-2.94,6.81-4.16c1.65-0.91,3.25-1.33,3.62-3.34
				C640.1,221.04,639.09,216.36,638.62,216.38z"/>
			<path class="st11" d="M639.85,221.44c-0.43,1.92-2.01,2.37-3.65,3.26c-2.37,1.29-4.49,3.23-6.93,4.29
				c-2.43,1.06-7.79,1.79-9.17-1.11c0.62,3.84,6.87,2.99,9.29,1.93c2.42-1.06,4.49-2.94,6.81-4.16c1.65-0.91,3.25-1.33,3.62-3.34
				C639.86,222.02,639.87,221.73,639.85,221.44z"/>
			<path class="st10" d="M618.86,207.71c-2.44,1.77-6.4-0.53-6.59-0.37c-2.56,2.33-5.26,4.51-8.07,6.53
				c-1.57,1.05-3.88,2.46-3.59,4.69c0.52,3.97,6.88,3.11,9.31,2.04c2.44-1.08,4.49-2.96,6.81-4.16c1.65-0.91,3.27-1.33,3.62-3.34
				C620.59,211.82,619.27,207.69,618.86,207.71z"/>
			<path class="st11" d="M620.34,212.49c-0.43,1.92-2.01,2.37-3.65,3.26c-2.37,1.29-4.49,3.23-6.93,4.31
				c-2.44,1.08-7.79,1.77-9.17-1.12c0.62,3.84,6.87,3.01,9.29,1.95c2.42-1.06,4.48-2.96,6.8-4.24c1.67-0.91,3.27-1.33,3.64-3.34
				C620.35,213.04,620.35,212.76,620.34,212.49z"/>
			<path id="_Контур_38" class="st12" d="M643.65,130.18c-0.32,3.53-2.26,18.81-3.22,26.9c-0.95,8.08-1.62,18.09-1.62,18.09
				s1.07,5.98,1.59,13c0.51,7.01-1.62,28.89-1.62,28.89c-1.9,1.09-4.27,0.96-6.03-0.34c0,0-2.76-17.78-4.03-25.79
				s-1.34-12.59-1.95-17.53c-0.75-6-1.54-33.82-1.54-33.82l-0.94-0.05l-4.26,31.11c0.64,2.35,1.04,4.76,1.19,7.19
				c0.39,5.13-2.45,30.67-2.45,30.67c-2.1,1.02-4.58,0.77-6.44-0.63c0,0-4.33-34.27-4.04-39.43c0.19-3.43,3.29-48.41,3.29-48.41
				L643.65,130.18z"/>
			<path id="_Контур_39" class="st4" d="M639.01,61.44c0,0-0.82,7.68-0.7,8.37s3.37,3.13,4.31,4
				c0.95,0.87-5.72,6.68-8.86,8.02s-12.63-3.01-12.53-7.8c0.1-4.78,2.15-8.68,3.64-8.81C626.37,65.1,639.01,61.44,639.01,61.44z"/>
			<path class="st4" d="M617.16,74.55c-0.26-3.42,2.15-6.53,0.15-9.36c-7.96,7.04-8.16,26.82-10.59,39.33
				c-5.97,5.57-17.62,10.75-20.89,12.01c-0.59,0.24-1.12,0.5-1.03,1.12c0.31,2.12,1.1,4.15,2.32,5.92
				c7.72-2.81,13.18-4.37,23.05-12.75c0.94-0.91,1.79-1.92,2.54-2.99C615.83,99.94,617.6,80.45,617.16,74.55z"/>
			<path id="_Контур_40" class="st5" d="M639.33,71.2c0,0-6.05,8.01-13.87,8.31c-2.32-2.55-2.05-11.19,1.5-13.76
				c0,0-2.98-2.7-5.15-2.34c-2.4,1.27-4.25,3.38-5.2,5.92c-2.29,5.62-3.56,11.6-3.74,17.67c-0.32,8.18-1.86,33.14-1.86,33.14
				s0.79,5.33,7.61,9.66s12.04,5.01,16.88,4.16c3.99-0.7,7.32-1.91,8.84-4.69c-0.04-5.76-1.75-20.84-0.4-27.99
				c1.35-7.15,3.18-12.43,3.9-18.24c0.72-5.81-0.43-5.75-3.24-7.99C642.93,73.65,641.18,72.36,639.33,71.2z"/>
			<path id="_Контур_41" class="st4" d="M622.28,48.99L622.28,48.99c1.26-5.99,5.81-10.28,11.96-9.53
				c6.51,0.71,11.21,6.58,10.5,13.1c-0.4,3.69-2.5,6.98-5.68,8.89c-0.26,0.89-0.63,1.75-1.1,2.56c-2.31,2.43-8.99,3.63-10.86,3.25
				c-2.3-0.31-4.17-2-4.72-4.25C620.59,58.15,621.59,51.9,622.28,48.99z"/>
			<path class="st10" d="M639.01,61.44L639.01,61.44l-0.27-5.26c0,0,4.92-10.78-5.31-9.22c-6.72,1.03-8.41,1.54-10.18-3.03
				s5.57-8.19,13.99-6.59c6,0.97,10.26,6.39,9.8,12.46C646.63,53.05,645.38,59.65,639.01,61.44z"/>
			<path class="st4" d="M649.81,79.7c-2.86-0.99-0.69-0.19-2.86-0.99c-7.96,7.02-7.78,19.85-10.21,32.37
				c-4.58,6.73-20.66,15.22-20.66,15.22c-0.27,1.33,0.17,1.75,1.71,4.64c8.84-2.84,17-7.48,23.96-13.64c0.4-0.33,0.95-0.4,1.12-0.86
				C645.99,108.49,650.25,85.62,649.81,79.7z"/>
			<polygon class="st5" points="579.74,91.38 588.86,130.72 613.12,142.04 606.18,103.83 			"/>
			<path class="st4" d="M619.96,126.83c-0.29-1.35-1.26-1.07-2.36-0.8c-1.19,0.41-2.47,0.45-3.68,0.11
				c-0.93-0.52-1.78-1.17-2.52-1.93c-0.48-0.33-1.05-0.53-1.63-0.56c-0.02,0.33,0.44,2.33,0.44,2.33s-5.44-0.31-6.03-0.34
				c-0.49-0.12-0.99,0.19-1.11,0.68c-0.07,0.27,0,0.56,0.17,0.78l-0.38-0.02c-1.09-0.3-1.59,1.43-0.56,1.7l0.9,0.19
				c-0.74,0.25-0.99,1.46-0.09,1.66l0.29,0.02c0.13,0.03,0.26,0.04,0.39,0.02l0.32,0.02c-0.14,0.51,0.16,1.03,0.66,1.17
				c0.03,0.01,0.06,0.01,0.09,0.02c2.64,0.5,6.48,1.77,9-0.28c1.67-0.07,3.33-0.41,4.88-1.03
				C620.2,129.92,620.33,128.43,619.96,126.83z"/>
			<path class="st4" d="M593.02,122.13l-0.38-0.02c0.42-0.27,0.55-0.83,0.29-1.25c-0.16-0.25-0.43-0.41-0.72-0.43
				c-0.56-0.03-6.09-1.52-6.09-1.52l-0.55-2.33c0.01-0.14-0.99,0.4-1.02,0.43c-1,0.57-1.68,1.56-1.85,2.7
				c-0.15,1.6,0.35,3.19,1.37,4.43c0.94,1.04,2.24,1.69,3.64,1.81c0.68,0.04,1.32,0.15,1.91,0.24c0.54,0.06,1.03-0.32,1.09-0.86
				c0-0.02,0-0.03,0-0.05l0.18,0.01c0.13,0.04,0.26,0.05,0.39,0.02l0.29,0.02c0.95,0.05,1.09-1.12,0.47-1.58l0.92,0.05
				C594.16,123.97,594.15,122.18,593.02,122.13z"/>
			<path class="st9" d="M613.71,79.42c-1.52-0.16-2.93-0.88-3.94-2.04c0.37-2.86,4.63-13.51,12.04-13.91
				c-2.05,1.31-3.72,3.14-4.84,5.3C615.61,72.23,614.52,75.79,613.71,79.42z"/>
			<path class="st9" d="M650.23,95.86c0,0-7.46,2.13-12.38-2.42c-0.52-1,3.77-13.27,3.77-13.27s3.37-6.2,8.09-3.39
				C654.43,79.58,650.23,95.86,650.23,95.86z"/>
		</g>
		<g id="Girl_10">
			<path id="_Контур__4_" class="st3" d="M103.14,141.65c-1.29-2.37-12.06-4.48-16.15,4.53c-1.55,3.41-1.84,12.35-3.28,17.9
				c-1.44,5.55-4.3,8.55-5.51,13.07c-1.21,4.52-0.08,12.22,10.8,14.18s19.51-1.42,22.3-4.77c2.78-3.35,3.25-10.8,0.78-14.92
				c-2.47-4.12-4.32-7.5-3.96-12.67L103.14,141.65z"/>
			<path class="st4" d="M113.99,180.9c0,0,1.55,18.32-4.03,30.97c-5.59,12.65-3.33-3.53-3.33-3.53l1.38-3.8
				c0,0,1.81-14.81,1.61-18.48s0.07-6.79-0.18-7.1c-0.25-0.31,1.02-0.81,1.51-0.86C111.45,178.07,113.99,180.9,113.99,180.9z"/>
			<path id="_Контур_2_11_" class="st3" d="M96.06,139.66c0,0,8.3-1.9,13.01,2.8c4.3,4.3,3.61,9.78,2.81,12.33
				c-0.8,2.55-2.33,6-4.39,6.08S96.06,139.66,96.06,139.66z"/>
			<path id="_Контур_3_4_" class="st4" d="M91.71,161.81c0,0,0.03,9.16-0.18,9.82c-0.21,0.66-3.65,1.11-4.65,1.86
				s4.39,10.33,7.32,11.87c2.93,1.54,12.43-1.44,13.33-6.04c0.84-4.24-2.24-7.74-3.42-8.98c-0.85-0.12-1.7-0.19-2.56-0.21
				l-0.03-4.44C97.49,164.18,91.71,161.81,91.71,161.81z"/>
			<path id="_Контур_4_4_" class="st5" d="M89.84,172.42c-2.58,0.25-5.59,1.46-6.07,2.84c-0.56,1.61-1.98,9.27-0.12,15.27
				c1.86,6,3.17,9.82,4.3,12.41c0,0,10.81,5.38,20.05,0.34c0,0,0.97-6.26,1.2-9.62c8.64-6.74,2.1-16-4.5-23.3
				c-0.83-0.13-1.67-0.19-2.51-0.18c0,0,5.82,7.73,1.25,11.68C94.32,178.52,92.71,174.25,89.84,172.42z"/>
			<path id="_Контур_5_19_" class="st4" d="M109.34,151.46L109.34,151.46c-0.59-5.89-4.57-10.58-10.63-10.57
				c-6.42-0.01-11.62,5.2-11.63,11.62c0,3.65,1.7,7.09,4.61,9.29c0.16,0.9,0.42,1.78,0.79,2.62c2,2.62,7.59,4.51,9.46,4.65
				c1.63,0.09,3.1-1.33,4.77-3.76C110.15,160.24,109.68,154.38,109.34,151.46z"/>
			<path class="st3" d="M96.84,140.9c-4.28,0.59-7.83,1.59-9.21,5.69c-0.95,2.83-2.28,8.23-1.43,10.59l0.52,1.7l4.96,2.93
				c0,0,2.5-1.86,2.09-7.76c0.08-0.78,0.37-1.53,0.85-2.15c0.36-0.53,0.64-1.11,0.83-1.73c0.69-1.55,1.96-2.77,3.53-3.41
				c3.93-1.93,9.42,0.24,10.18,1.06C106.83,142.34,101.82,140.22,96.84,140.9z"/>
			<path class="st6" d="M78.79,325.26c2.05,1.87,5.44,0.85,5.6,1.01c2.06,2.31,5.2,4.4,7.52,6.45c1.28,1.13,3.27,2.65,2.79,4.65
				c-0.88,3.58-6.6,2.14-8.72,0.91c-2.12-1.23-3.8-3.14-5.79-4.56c-1.41-1-2.84-1.56-2.97-3.43
				C77.14,329.15,78.41,325.19,78.79,325.26z"/>
			<path class="st7" d="M77.29,329.54c0.18,1.8,1.59,2.37,2.99,3.35c2.03,1.42,3.77,3.41,5.88,4.64c1.95,1.14,6.93,2.43,8.49-0.06
				c-0.97,3.44-6.59,2.02-8.68,0.81c-2.1-1.22-3.8-3.14-5.79-4.56c-1.41-1-2.84-1.56-2.97-3.43
				C77.21,330.04,77.24,329.79,77.29,329.54z"/>
			<path class="st6" d="M93.99,323.09c1.87,1.71,4.88,1.01,5.02,1.13c1.89,2.12,4.75,4.01,6.87,5.88c1.17,1.03,3.01,2.43,2.56,4.26
				c-0.81,3.28-6.04,1.96-7.98,0.84s-3.49-2.9-5.3-4.18c-1.3-0.92-2.6-1.43-2.75-3.14C92.37,326.85,93.64,323.03,93.99,323.09z"/>
			<path class="st7" d="M92.5,327.2c0.16,1.64,1.45,2.17,2.75,3.08c1.86,1.31,3.48,3.13,5.39,4.24c1.79,1.05,6.34,2.23,7.77-0.06
				c-0.91,3.15-6.03,1.86-7.95,0.75c-1.92-1.11-3.49-2.9-5.3-4.18c-1.3-0.92-2.6-1.43-2.75-3.14
				C92.42,327.66,92.45,327.42,92.5,327.2z"/>
			<path class="st4" d="M111.13,223.91c-0.53-7.45-2.63-18.35-2.63-18.35c-2.66,1.07-5.5,1.6-8.37,1.57
				c-4.78-0.03-12.33-1.9-12.33-1.9c-1.47,2.26-3.06,4.43-4.75,6.52c-2.29,2.84-6.8,9.1-6.44,20.49c0.24,7.45,2.62,39.14,2.62,39.14
				c-1.91,5.2-3.07,10.65-3.46,16.18c-0.21,4.58,0.55,12.42,1.5,19.69l1.47,18c0,0,3.15,2.57,5.6,1.01l0.68-17.49
				c0.53-4.26,1.32-10.55,1.8-14.55c0.81-6.55,2.57-16.89,3.05-19.48c0.48-2.59,1.57-7.08,2.25-12.16s4.06-30.86,4.06-30.86
				l-0.01,4.86c0,0-0.19,7.89,0.4,17.67c0.59,9.77,0.74,14.11,0.74,14.11s-2.16,3.5-2.54,6.15c-0.31,2.09-3.64,18.57-2.69,27.09
				l1.71,21.64c1.44,1.12,3.32,1.48,5.07,0.96l2.94-21.55c1.62-8.18,5.09-25.5,5.56-27.75c0.66-2.96,1.15-4.41,2.24-13.79
				S111.67,231.36,111.13,223.91z"/>
			<path class="st8" d="M87.94,202.94l-7.07,12.44c0,0-10.51,13.68-2.5,50.84l-2.52,11.18c0,0,18.36,13.31,31.79,1.79
				c0,0,6.31-33.56,4.84-49.28c-0.81-9.04-2.29-18.01-4.45-26.82c0,0-3.31,3.28-19.25,0.1"/>
			<path id="_Контур_6_6_" class="st4" d="M127.28,214.27c-1.47,0.2-2.85-0.2-4.92,0.24c-1.55,0.4-3.16,0.55-4.76,0.46
				c-1.74-0.1-6.47-2.8-10.48-5.97c-4.73-3.73-9.28-9.97-10.88-12.94c-3.45-6.4-6.73-13-7.67-16.33c-1.12-4-1.24-1.33-3.57-1.52
				c-2.72-0.22-4.24,0.7-2.49,6.14c1.74,5.44,3.39,9.26,7.59,15.81c3.07,4.91,6.95,9.26,11.49,12.85c3.99,3.14,8.34,5.8,12.96,7.9
				c1.33,0.64,2.16,1.44,4.55,2.95c2.37,1.54,5.08,2.49,7.89,2.76c2.37,0.07,3.23-0.27,3.46-0.74c0.28-0.59-0.15-1.03-1.23-1.2
				c-1.72-0.12-3.41-0.56-4.98-1.28c0,0,2.34,0.47,3.75,0.62c1.27,0.14,2.54,0.11,3.8-0.09c1.21-0.22,1.98-1.87,0.9-2.07
				c-1.08-0.19-1.97-0.04-4.07-0.29c-1.11-0.13-2.21-0.4-3.26-0.79c1.41,0.09,2.83,0.07,4.24-0.07c1.14-0.04,2.25-0.42,3.18-1.07
				c0.48-0.35,0.62-1.43-0.75-1.51c-1.23-0.07-2.81,0.41-5.12-0.04c-1.7-0.34-2.88-0.81-2.58-1.02c0.3-0.21,1.26,0.07,2.7-0.37
				c1.44-0.44,2.5-1.62,2.22-2.39C128.96,213.56,128.77,214.09,127.28,214.27z"/>
			<path class="st9" d="M83.48,189.49c0,0,6.21,0.68,9.98-3.04l-3.39-8.25c0,0-1.52-4.55-5.74-3.68
				C80.11,175.38,79.71,181.23,83.48,189.49z"/>
			<path class="st9" d="M104.7,170.36c0,0,5.15-1.26,9.89,10.26l-2.08,1.1C112.51,181.72,107.67,173.41,104.7,170.36z"/>
		</g>
		<g>
			<g>
				<g class="st13">
					<g class="st13">
						<defs>
							<path id="SVGID_1_" class="st13" d="M620.51,364.21v21.64c0-10.46-23.62-22.39-63.21-31.89
								c-50.85-12.21-122.52-19.21-196.64-19.21c-74.12,0-145.8,7-196.64,19.21c-39.58,9.51-63.21,21.43-63.21,31.89v-21.64
								c0-10.46,23.62-22.39,63.21-31.89c50.85-12.21,122.52-19.21,196.64-19.21c74.12,0,145.8,7,196.64,19.21
								C596.88,341.82,620.51,353.75,620.51,364.21z"/>
						</defs>
						<clipPath id="SVGID_2_">
							<use xlink:href="#SVGID_1_"  style="overflow:visible;"/>
						</clipPath>
						<g class="st14">
							<path class="st15" d="M620.51,364.21v21.64c0-7.79-13.08-16.38-36.09-24.19v-21.64
								C607.42,347.83,620.51,356.43,620.51,364.21"/>
							<path class="st16" d="M584.42,340.02v21.64c-7.91-2.68-16.99-5.27-27.12-7.71c-3-0.72-6.08-1.42-9.23-2.11v-21.64
								c3.15,0.68,6.22,1.39,9.23,2.11C567.43,334.75,576.51,337.34,584.42,340.02"/>
							<path class="st17" d="M548.07,330.21v21.64c-16.75-3.65-35.46-6.77-55.55-9.31V320.9
								C512.62,323.44,531.32,326.56,548.07,330.21"/>
							<path class="st18" d="M492.53,320.9v21.64c-24.44-3.09-50.92-5.31-78.41-6.58v-21.64
								C441.61,315.59,468.09,317.81,492.53,320.9"/>
							<path class="st18" d="M414.12,314.32v21.64c-17.5-0.8-35.41-1.22-53.46-1.22c-12.61,0-25.14,0.2-37.52,0.6V313.7
								c12.37-0.4,24.91-0.6,37.52-0.6C378.71,313.1,396.62,313.52,414.12,314.32"/>
							<path class="st18" d="M323.14,313.7v21.64c-29.57,0.95-58.23,3-84.72,6.04v-21.64C264.91,316.7,293.57,314.65,323.14,313.7"
								/>
							<path class="st18" d="M238.42,319.74v21.64c-22.94,2.63-44.26,6-63.17,10.03v-21.64
								C194.15,325.74,215.48,322.37,238.42,319.74"/>
							<path class="st18" d="M175.24,329.78v21.64c-3.85,0.82-7.59,1.67-11.23,2.54c-12.11,2.91-22.73,6.04-31.63,9.29v-21.64
								c8.9-3.25,19.52-6.38,31.63-9.29C167.65,331.44,171.4,330.6,175.24,329.78"/>
							<path class="st18" d="M132.38,341.61v21.64c-12.96,4.73-22.29,9.71-27.31,14.59V356.2
								C110.09,351.32,119.42,346.34,132.38,341.61"/>
							<path class="st18" d="M105.07,356.2v21.64c-1.09,1.06-1.99,2.12-2.66,3.17v-21.64C103.08,358.32,103.97,357.26,105.07,356.2"
								/>
							<path class="st18" d="M102.41,359.37v21.64c-0.41,0.63-0.74,1.25-0.99,1.88v-21.64C101.67,360.62,102,360,102.41,359.37"/>
							<path class="st18" d="M101.42,361.24v21.64c-0.2,0.5-0.36,1-0.46,1.49v-21.64C101.06,362.24,101.21,361.74,101.42,361.24"/>
							<path class="st19" d="M100.96,362.74v21.64c-0.09,0.44-0.14,0.87-0.15,1.3v-21.64C100.82,363.61,100.87,363.17,100.96,362.74
								"/>
							<path class="st20" d="M100.81,364.04v21.64c0,0.06,0,0.12,0,0.17v-21.64C100.8,364.15,100.8,364.1,100.81,364.04"/>
						</g>
					</g>
					<g>
						<polygon class="st21" points="173.31,398.23 173.31,419.87 143.36,440.69 143.36,419.06 						"/>
					</g>
					<g class="st13">
						<defs>
							<path id="SVGID_3_" class="st13" d="M143.36,419.06v21.64c-62.59-13.14-101.72-31.84-101.72-52.61v-21.64
								C41.63,387.21,80.77,405.92,143.36,419.06z"/>
						</defs>
						<clipPath id="SVGID_4_">
							<use xlink:href="#SVGID_3_"  style="overflow:visible;"/>
						</clipPath>
						<g class="st22">
							<path class="st18" d="M143.36,419.06v21.64c-1.43-0.3-2.85-0.6-4.26-0.91v-21.64C140.5,418.45,141.92,418.75,143.36,419.06"
								/>
							<path class="st18" d="M139.1,418.14v21.64c-16.65-3.62-31.55-7.65-44.4-12.01v-21.64
								C107.54,410.49,122.45,414.52,139.1,418.14"/>
							<path class="st18" d="M94.69,406.13v21.64c-33.53-11.38-53.06-25.02-53.06-39.69v-21.64
								C41.63,381.12,61.16,394.76,94.69,406.13"/>
						</g>
					</g>
					<g>
						<polygon class="st18" points="470.45,434.23 470.45,455.87 447.09,433.73 447.09,412.09 						"/>
					</g>
					<g class="st13">
						<defs>
							<path id="SVGID_5_" class="st13" d="M682.63,366.45v21.64c0,31.23-88.47,57.81-212.18,67.79v-21.64
								C594.16,424.25,682.63,397.67,682.63,366.45z"/>
						</defs>
						<clipPath id="SVGID_6_">
							<use xlink:href="#SVGID_5_"  style="overflow:visible;"/>
						</clipPath>
						<g class="st23">
							<path class="st20" d="M682.63,366.45v21.64c0,0.14,0,0.27-0.01,0.41v-21.64C682.63,366.72,682.63,366.58,682.63,366.45"/>
							<path class="st19" d="M682.63,366.85v21.64c-0.02,1.01-0.14,2.02-0.35,3.02v-21.64C682.48,368.87,682.6,367.87,682.63,366.85
								"/>
							<path class="st18" d="M682.28,369.88v21.64c-0.23,1.11-0.57,2.21-1.03,3.3v-21.64C681.7,372.09,682.04,370.98,682.28,369.88"
								/>
							<path class="st18" d="M681.25,373.18v21.64c-0.54,1.3-1.23,2.59-2.07,3.87v-21.64C680.02,375.77,680.71,374.48,681.25,373.18
								"/>
							<path class="st18" d="M679.18,377.05v21.64c-1.34,2.03-3.05,4.04-5.12,6.01v-21.64
								C676.13,381.09,677.84,379.09,679.18,377.05"/>
							<path class="st18" d="M674.06,383.06v21.64c-7.93,7.54-21.14,14.63-38.71,21.04v-21.64
								C652.91,397.69,666.12,390.61,674.06,383.06"/>
							<path class="st18" d="M635.35,404.11v21.64c-14.67,5.36-32.38,10.26-52.59,14.57v-21.64
								C602.97,414.36,620.67,409.47,635.35,404.11"/>
							<path class="st18" d="M582.76,418.67v21.64c-22.23,4.74-47.49,8.77-75.06,11.94v-21.64
								C535.26,427.45,560.52,423.42,582.76,418.67"/>
							<path class="st18" d="M507.7,430.61v21.64c-12,1.38-24.43,2.59-37.24,3.62v-21.64C483.27,433.2,495.7,431.99,507.7,430.61"/>
						</g>
					</g>
					<g>
						<path class="st24" d="M362.14,294.44c177.01,0,320.49,32.24,320.49,72.01c0,31.23-88.47,57.81-212.18,67.79l-23.37-22.14
							c41.6-3.19,79.66-8.64,110.21-15.98c39.58-9.51,63.21-21.43,63.21-31.89s-23.62-22.39-63.21-31.89
							c-50.85-12.21-122.52-19.21-196.64-19.21c-74.12,0-145.8,7-196.64,19.21c-39.58,9.51-63.21,21.43-63.21,31.89
							s23.62,22.39,63.21,31.89c3.03,0.73,6.13,1.44,9.3,2.12l-29.96,20.82c-62.59-13.14-101.72-31.84-101.72-52.61
							C41.63,326.68,185.13,294.44,362.14,294.44z"/>
					</g>
				</g>
			</g>
			<g>
				<g class="st13">
					<g>
						<polygon class="st25" points="100.82,339.61 100.82,361.25 43.69,355.56 43.69,333.92 						"/>
					</g>
					<g class="st13">
						<defs>
							<path id="SVGID_7_" class="st13" d="M620.51,339.84v21.64c0-10.46-23.62-22.39-63.21-31.89
								c-50.85-12.21-122.52-19.21-196.64-19.21s-145.8,7-196.64,19.21c-39.3,9.44-62.86,21.25-63.2,31.67v-21.64
								c0.34-10.41,23.89-22.23,63.2-31.67c50.85-12.21,122.52-19.21,196.64-19.21s145.8,7,196.64,19.21
								C596.89,317.45,620.51,329.38,620.51,339.84z"/>
						</defs>
						<clipPath id="SVGID_8_">
							<use xlink:href="#SVGID_7_"  style="overflow:visible;"/>
						</clipPath>
						<g class="st26">
							<path class="st27" d="M620.51,339.84v21.64c0-7.79-13.08-16.38-36.09-24.19v-21.64
								C607.43,323.46,620.51,332.06,620.51,339.84"/>
							<path class="st28" d="M584.42,315.65v21.64c-7.91-2.68-16.99-5.27-27.12-7.71c-3-0.72-6.08-1.42-9.23-2.11v-21.64
								c3.15,0.68,6.22,1.39,9.23,2.11C567.43,310.38,576.51,312.97,584.42,315.65"/>
							<path class="st29" d="M548.08,305.84v21.64c-16.75-3.65-35.46-6.77-55.55-9.31v-21.64
								C512.62,299.07,531.32,302.19,548.08,305.84"/>
							<path class="st25" d="M492.53,296.53v21.64c-24.44-3.09-50.92-5.31-78.41-6.58v-21.64
								C441.61,291.22,468.09,293.44,492.53,296.53"/>
							<path class="st25" d="M414.12,289.95v21.64c-17.5-0.8-35.41-1.22-53.46-1.22c-12.61,0-25.14,0.2-37.52,0.6v-21.64
								c12.37-0.4,24.91-0.6,37.52-0.6C378.71,288.73,396.62,289.15,414.12,289.95"/>
							<path class="st25" d="M323.14,289.33v21.64c-29.57,0.95-58.23,3-84.72,6.04v-21.64
								C264.91,292.33,293.57,290.28,323.14,289.33"/>
							<path class="st25" d="M238.42,295.37v21.64c-22.94,2.63-44.26,6-63.17,10.03v-21.64C194.15,301.37,215.48,298,238.42,295.37"
								/>
							<path class="st25" d="M175.24,305.41v21.64c-3.85,0.82-7.59,1.67-11.23,2.54c-12.11,2.91-22.73,6.04-31.64,9.29v-21.64
								c8.9-3.25,19.52-6.39,31.64-9.29C167.65,307.07,171.4,306.23,175.24,305.41"/>
							<path class="st25" d="M132.38,317.24v21.64c-12.93,4.72-22.24,9.68-27.27,14.55v-21.64
								C110.14,326.92,119.45,321.96,132.38,317.24"/>
							<path class="st25" d="M105.11,331.79v21.64c-1.11,1.07-2,2.13-2.69,3.19v-21.64C103.11,333.92,104.01,332.86,105.11,331.79"
								/>
							<path class="st25" d="M102.42,334.98v21.64c-0.41,0.63-0.74,1.25-0.99,1.88v-21.64
								C101.69,336.23,102.02,335.61,102.42,334.98"/>
							<path class="st18" d="M101.43,336.85v21.64c-0.2,0.5-0.36,1-0.46,1.5v-21.64C101.07,337.85,101.23,337.36,101.43,336.85"/>
							<path class="st25" d="M100.97,338.35v21.64c-0.09,0.42-0.14,0.84-0.15,1.26v-21.64
								C100.83,339.19,100.88,338.77,100.97,338.35"/>
						</g>
					</g>
					<g>
						<polygon class="st30" points="470.46,409.86 470.46,431.5 447.09,409.36 447.09,387.72 						"/>
					</g>
					<g class="st13">
						<defs>
							<path id="SVGID_9_" class="st13" d="M682.63,342.08v21.64c0,28.71-87.97,59-212.18,67.78v-21.64
								C594.67,401.07,682.63,370.79,682.63,342.08z"/>
						</defs>
						<clipPath id="SVGID_10_">
							<use xlink:href="#SVGID_9_"  style="overflow:visible;"/>
						</clipPath>
						<g class="st31">
							<path class="st32" d="M682.63,342.08v21.64c0,0.12,0,0.24,0,0.35v-21.64C682.63,342.31,682.63,342.19,682.63,342.08"/>
							<path class="st25" d="M682.63,342.43v21.64c-0.02,0.88-0.13,1.77-0.31,2.65v-21.64C682.5,344.2,682.61,343.31,682.63,342.43"
								/>
							<path class="st25" d="M682.32,345.08v21.64c-0.21,0.99-0.52,1.98-0.93,2.97v-21.64C681.8,347.06,682.11,346.07,682.32,345.08
								"/>
							<path class="st25" d="M681.39,348.05v21.64c-0.5,1.2-1.14,2.39-1.92,3.59v-21.64C680.25,350.45,680.89,349.25,681.39,348.05"
								/>
							<path class="st25" d="M679.47,351.64v21.64c-1.31,2-3.01,3.99-5.1,5.97v-21.64C676.45,355.63,678.16,353.64,679.47,351.64"/>
							<path class="st25" d="M674.37,357.61v21.64c-8.27,7.86-22.51,15.53-41.65,22.51v-21.64
								C651.86,373.14,666.1,365.47,674.37,357.61"/>
							<path class="st25" d="M632.72,380.13v21.64c-15.25,5.57-33.61,10.71-54.53,15.17V395.3
								C599.11,390.83,617.47,385.7,632.72,380.13"/>
							<path class="st25" d="M578.19,395.3v21.64c-20.38,4.35-43.19,8.05-67.92,10.89v-21.64C535,403.35,557.81,399.64,578.19,395.3
								"/>
							<path class="st25" d="M510.27,406.19v21.64c-12.78,1.47-26.08,2.7-39.82,3.67v-21.64
								C484.19,408.89,497.49,407.65,510.27,406.19"/>
						</g>
					</g>
					<g>
						<path class="st33" d="M362.14,270.07c177.01,0,320.49,32.24,320.49,72.01c0,28.71-87.97,59-212.18,67.78l-23.37-22.14
							c41.58-3.19,79.66-8.64,110.21-15.98c39.58-9.51,63.21-21.43,63.21-31.89c0-10.46-23.62-22.39-63.21-31.89
							c-50.85-12.21-122.52-19.21-196.64-19.21s-145.8,7-196.64,19.21c-39.3,9.44-62.86,21.25-63.2,31.67l-57.13-5.69
							C61.71,297.99,197.39,270.07,362.14,270.07z"/>
					</g>
				</g>
			</g>
			<g>
				<g class="st13">
					<g>
						<polygon class="st21" points="167.62,282.73 167.62,304.37 141.37,287.15 141.37,265.51 						"/>
					</g>
					<g class="st13">
						<defs>
							<path id="SVGID_11_" class="st13" d="M620.51,315.47v21.64c0-10.46-23.62-22.39-63.21-31.89
								C506.45,293,434.78,286,360.66,286c-72.39,0-142.44,6.69-193.03,18.37v-21.64c50.59-11.68,120.64-18.37,193.03-18.37
								c74.12,0,145.8,7,196.64,19.21C596.88,293.08,620.51,305.01,620.51,315.47z"/>
						</defs>
						<clipPath id="SVGID_12_">
							<use xlink:href="#SVGID_11_"  style="overflow:visible;"/>
						</clipPath>
						<g class="st34">
							<path class="st35" d="M620.51,315.47v21.64c0-7.79-13.08-16.38-36.09-24.19v-21.64
								C607.42,299.08,620.51,307.68,620.51,315.47"/>
							<path class="st36" d="M584.42,291.28v21.64c-7.91-2.68-16.99-5.27-27.12-7.71c-3-0.72-6.08-1.42-9.23-2.11v-21.64
								c3.15,0.68,6.22,1.39,9.23,2.11C567.43,286,576.51,288.59,584.42,291.28"/>
							<path class="st18" d="M548.07,281.46v21.64c-16.75-3.65-35.46-6.77-55.55-9.31v-21.64
								C512.62,274.7,531.32,277.82,548.07,281.46"/>
							<path class="st18" d="M492.53,272.16v21.64c-24.44-3.09-50.92-5.31-78.41-6.58v-21.64
								C441.61,266.84,468.09,269.07,492.53,272.16"/>
							<path class="st18" d="M414.12,265.58v21.64c-17.5-0.8-35.41-1.22-53.46-1.22c-12.59,0-25.11,0.2-37.48,0.6v-21.64
								c12.36-0.4,24.88-0.6,37.48-0.6C378.71,264.36,396.62,264.77,414.12,265.58"/>
							<path class="st18" d="M323.18,264.96v21.64c-29.58,0.95-58.24,3-84.74,6.04V271C264.94,267.96,293.6,265.9,323.18,264.96"/>
							<path class="st18" d="M238.44,271v21.64c-22.97,2.64-44.33,6.01-63.25,10.05v-21.64C194.12,277.01,215.47,273.63,238.44,271"
								/>
							<path class="st18" d="M175.19,281.05v21.64c-2.57,0.55-5.09,1.11-7.56,1.68v-21.64C170.1,282.15,172.62,281.6,175.19,281.05"
								/>
						</g>
					</g>
					<g>
						<polygon class="st21" points="470.45,385.49 470.45,407.13 447.09,384.98 447.09,363.34 						"/>
					</g>
					<g class="st13">
						<defs>
							<path id="SVGID_13_" class="st13" d="M682.63,317.7v21.64c0,31.23-88.47,57.81-212.18,67.78v-21.64
								C594.16,375.51,682.63,348.93,682.63,317.7z"/>
						</defs>
						<clipPath id="SVGID_14_">
							<use xlink:href="#SVGID_13_"  style="overflow:visible;"/>
						</clipPath>
						<g class="st37">
							<path class="st38" d="M682.63,317.7v21.64c0,0.14,0,0.27-0.01,0.41v-21.64C682.63,317.97,682.63,317.84,682.63,317.7"/>
							<path class="st18" d="M682.63,318.11v21.64c-0.02,1.01-0.14,2.02-0.35,3.02v-21.64C682.48,320.13,682.6,319.12,682.63,318.11
								"/>
							<path class="st18" d="M682.28,321.13v21.64c-0.23,1.11-0.57,2.21-1.03,3.3v-21.64C681.7,323.34,682.04,322.24,682.28,321.13"
								/>
							<path class="st18" d="M681.25,324.43v21.64c-0.54,1.3-1.23,2.59-2.07,3.87v-21.64C680.02,327.03,680.71,325.74,681.25,324.43
								"/>
							<path class="st18" d="M679.18,328.31v21.64c-1.34,2.03-3.05,4.04-5.12,6.01v-21.64
								C676.13,332.35,677.84,330.34,679.18,328.31"/>
							<path class="st18" d="M674.06,334.32v21.64c-7.93,7.54-21.14,14.63-38.71,21.04v-21.64
								C652.91,348.95,666.12,341.86,674.06,334.32"/>
							<path class="st18" d="M635.35,355.36V377c-14.67,5.36-32.38,10.26-52.59,14.57v-21.64
								C602.97,365.62,620.67,360.72,635.35,355.36"/>
							<path class="st18" d="M582.76,369.93v21.64c-22.23,4.74-47.49,8.77-75.06,11.94v-21.64
								C535.26,378.7,560.52,374.67,582.76,369.93"/>
							<path class="st18" d="M507.7,381.87v21.64c-12,1.38-24.43,2.59-37.24,3.62v-21.64C483.27,384.45,495.7,383.24,507.7,381.87"
								/>
						</g>
					</g>
					<g>
						<path class="st24" d="M362.14,245.69c177.01,0,320.49,32.24,320.49,72.01c0,31.23-88.47,57.81-212.18,67.79l-23.37-22.14
							c41.6-3.18,79.66-8.64,110.21-15.98c39.58-9.51,63.21-21.42,63.21-31.89c0-10.46-23.62-22.39-63.21-31.89
							c-50.85-12.21-122.52-19.21-196.64-19.21c-72.39,0-142.44,6.69-193.03,18.37l-26.26-17.22
							C198.85,253.24,276.57,245.69,362.14,245.69z"/>
					</g>
				</g>
			</g>
			<g>
				<g class="st13">
					<g>
						<polygon class="st30" points="272.96,244.76 272.96,266.39 253.17,248.68 253.17,227.04 						"/>
					</g>
					<g class="st13">
						<defs>
							<path id="SVGID_15_" class="st13" d="M620.51,292.54v21.64c0-10.47-23.62-22.39-63.21-31.9
								c-50.85-12.21-122.52-19.21-196.64-19.21c-30.05,0-59.69,1.16-87.7,3.34v-21.64c28.01-2.18,57.65-3.34,87.7-3.34
								c74.12,0,145.8,7.01,196.64,19.21C596.88,270.15,620.51,282.07,620.51,292.54z"/>
						</defs>
						<clipPath id="SVGID_16_">
							<use xlink:href="#SVGID_15_"  style="overflow:visible;"/>
						</clipPath>
						<g class="st39">
							<path class="st25" d="M620.51,292.54v21.64c0-7.79-13.09-16.39-36.1-24.2v-21.64C607.42,276.15,620.51,284.74,620.51,292.54"
								/>
							<path class="st25" d="M584.4,268.34v21.64c-7.91-2.68-16.98-5.27-27.1-7.7c-2.99-0.72-6.04-1.42-9.17-2.1v-21.64
								c3.13,0.68,6.18,1.38,9.17,2.1C567.42,263.07,576.5,265.66,584.4,268.34"/>
							<path class="st25" d="M548.13,258.54v21.64c-16.77-3.65-35.5-6.78-55.61-9.32v-21.64
								C512.63,251.76,531.36,254.89,548.13,258.54"/>
							<path class="st25" d="M492.52,249.22v21.64c-24.45-3.09-50.94-5.32-78.44-6.58v-21.64
								C441.58,243.9,468.07,246.13,492.52,249.22"/>
							<path class="st25" d="M414.08,242.64v21.64c-17.48-0.8-35.38-1.22-53.42-1.22c-12.56,0-25.05,0.2-37.37,0.6v-21.64
								c12.33-0.39,24.81-0.6,37.37-0.6C378.7,241.42,396.59,241.84,414.08,242.64"/>
							<path class="st25" d="M323.28,242.02v21.64c-17.17,0.55-34.02,1.47-50.32,2.74v-21.64
								C289.26,243.49,306.12,242.57,323.28,242.02"/>
						</g>
					</g>
					<g>
						<polygon class="st30" points="470.45,362.55 470.45,384.19 447.09,362.04 447.09,340.41 						"/>
					</g>
					<g class="st13">
						<defs>
							<path id="SVGID_17_" class="st13" d="M682.63,294.76v21.64c0,31.23-88.47,57.81-212.18,67.79v-21.64
								C594.16,352.57,682.63,325.99,682.63,294.76z"/>
						</defs>
						<clipPath id="SVGID_18_">
							<use xlink:href="#SVGID_17_"  style="overflow:visible;"/>
						</clipPath>
						<g class="st40">
							<path class="st41" d="M682.63,294.76v21.64c0,0.14,0,0.27-0.01,0.41v-21.64C682.63,295.04,682.63,294.9,682.63,294.76"/>
							<path class="st25" d="M682.63,295.17v21.64c-0.02,1.01-0.14,2.02-0.35,3.02v-21.64C682.48,297.19,682.6,296.18,682.63,295.17
								"/>
							<path class="st25" d="M682.28,298.19v21.64c-0.23,1.11-0.57,2.21-1.03,3.3V301.5C681.7,300.4,682.04,299.3,682.28,298.19"/>
							<path class="st25" d="M681.25,301.5v21.64c-0.54,1.3-1.23,2.59-2.07,3.87v-21.64C680.02,304.09,680.71,302.8,681.25,301.5"/>
							<path class="st25" d="M679.18,305.37v21.64c-1.34,2.03-3.05,4.04-5.12,6.01v-21.64C676.13,309.41,677.84,307.4,679.18,305.37
								"/>
							<path class="st25" d="M674.06,311.38v21.64c-7.93,7.54-21.14,14.63-38.71,21.04v-21.64
								C652.91,326.01,666.12,318.92,674.06,311.38"/>
							<path class="st25" d="M635.35,332.43v21.64c-14.67,5.36-32.38,10.26-52.59,14.57v-21.64
								C602.97,342.68,620.67,337.79,635.35,332.43"/>
							<path class="st25" d="M582.76,346.99v21.64c-22.23,4.74-47.49,8.77-75.06,11.94v-21.64
								C535.26,355.77,560.52,351.73,582.76,346.99"/>
							<path class="st25" d="M507.7,358.93v21.64c-12,1.38-24.43,2.59-37.24,3.62v-21.64C483.27,361.52,495.7,360.3,507.7,358.93"/>
						</g>
					</g>
					<g>
						<path class="st33" d="M362.14,222.76c177.01,0,320.49,32.23,320.49,72c0,31.23-88.47,57.81-212.18,67.79l-23.37-22.14
							c41.6-3.18,79.66-8.64,110.21-15.97c39.58-9.51,63.21-21.43,63.21-31.89c0-10.47-23.62-22.39-63.21-31.9
							c-50.85-12.21-122.52-19.21-196.64-19.21c-30.05,0-59.69,1.16-87.7,3.34l-19.79-17.72
							C287.19,224.27,323.87,222.76,362.14,222.76z"/>
					</g>
				</g>
			</g>
			<g>
				<g class="st13">
					<g class="st13">
						<defs>
							<path id="SVGID_19_" class="st13" d="M620.51,269.73v21.64c0-10.47-23.62-22.39-63.21-31.9c-25.4-6.09-56-10.89-89.5-14.18
								v-21.64c33.51,3.28,64.1,8.08,89.5,14.18C596.88,247.35,620.51,259.26,620.51,269.73z"/>
						</defs>
						<clipPath id="SVGID_20_">
							<use xlink:href="#SVGID_19_"  style="overflow:visible;"/>
						</clipPath>
						<g class="st42">
							<path class="st18" d="M620.51,269.73v21.64c0-7.79-13.09-16.39-36.1-24.2v-21.64C607.42,253.35,620.51,261.94,620.51,269.73"
								/>
							<path class="st18" d="M584.4,245.54v21.64c-7.91-2.68-16.98-5.27-27.1-7.7c-2.97-0.71-6.01-1.41-9.11-2.08v-21.64
								c3.11,0.68,6.14,1.37,9.11,2.08C567.42,240.26,576.5,242.85,584.4,245.54"/>
							<path class="st18" d="M548.19,235.75v21.64c-16.8-3.66-35.56-6.79-55.71-9.34v-21.64
								C512.63,228.96,531.39,232.09,548.19,235.75"/>
							<path class="st18" d="M492.48,226.41v21.64c-8.02-1.01-16.26-1.93-24.68-2.76v-21.64
								C476.22,224.48,484.46,225.4,492.48,226.41"/>
						</g>
					</g>
					<g>
						<polygon class="st21" points="470.45,339.75 470.45,361.38 447.09,339.25 447.09,317.61 						"/>
					</g>
					<g class="st13">
						<defs>
							<path id="SVGID_21_" class="st13" d="M682.63,271.96v21.64c0,31.23-88.47,57.81-212.18,67.79v-21.64
								C594.16,329.77,682.63,303.19,682.63,271.96z"/>
						</defs>
						<clipPath id="SVGID_22_">
							<use xlink:href="#SVGID_21_"  style="overflow:visible;"/>
						</clipPath>
						<g class="st43">
							<path class="st44" d="M682.63,271.96v21.64c0,0.14,0,0.27-0.01,0.41v-21.64C682.63,272.23,682.63,272.1,682.63,271.96"/>
							<path class="st18" d="M682.63,272.37v21.64c-0.02,1.01-0.14,2.02-0.35,3.02v-21.64C682.48,274.39,682.6,273.38,682.63,272.37
								"/>
							<path class="st18" d="M682.28,275.39v21.64c-0.23,1.11-0.57,2.21-1.03,3.3v-21.64C681.7,277.6,682.04,276.5,682.28,275.39"/>
							<path class="st18" d="M681.25,278.69v21.64c-0.54,1.3-1.23,2.59-2.07,3.87v-21.64C680.02,281.29,680.71,279.99,681.25,278.69
								"/>
							<path class="st18" d="M679.18,282.57v21.64c-1.34,2.03-3.05,4.04-5.12,6.01v-21.64C676.13,286.6,677.84,284.6,679.18,282.57"
								/>
							<path class="st18" d="M674.06,288.58v21.64c-7.93,7.54-21.14,14.63-38.71,21.04v-21.64
								C652.91,303.2,666.12,296.12,674.06,288.58"/>
							<path class="st18" d="M635.35,309.62v21.64c-14.67,5.36-32.38,10.26-52.59,14.57v-21.64
								C602.97,319.88,620.67,314.98,635.35,309.62"/>
							<path class="st18" d="M582.76,324.19v21.64c-22.23,4.74-47.49,8.77-75.06,11.94v-21.64
								C535.26,332.96,560.52,328.93,582.76,324.19"/>
							<path class="st18" d="M507.7,336.12v21.64c-12,1.38-24.43,2.59-37.24,3.62v-21.64C483.27,338.71,495.7,337.5,507.7,336.12"/>
						</g>
					</g>
					<g>
						<path class="st24" d="M490.22,205.94c113.26,11.11,192.41,36.48,192.41,66.02c0,31.23-88.47,57.81-212.18,67.79l-23.37-22.14
							c41.6-3.19,79.66-8.64,110.21-15.98c39.58-9.51,63.21-21.43,63.21-31.89c0-10.47-23.62-22.39-63.21-31.9
							c-25.4-6.09-56-10.89-89.5-14.18L490.22,205.94z"/>
					</g>
				</g>
			</g>
			<g>
				<g class="st13">
					<g class="st13">
						<defs>
							<path id="SVGID_23_" class="st13" d="M620.51,246.07v21.64c0-7.88-13.41-16.58-36.93-24.46V221.6
								C607.1,229.48,620.51,238.19,620.51,246.07z"/>
						</defs>
						<clipPath id="SVGID_24_">
							<use xlink:href="#SVGID_23_"  style="overflow:visible;"/>
						</clipPath>
						<g class="st45">
							<path class="st25" d="M620.51,246.07v21.64c0-7.79-13.09-16.38-36.1-24.18v-21.64C607.42,229.69,620.51,238.28,620.51,246.07
								"/>
							<path class="st25" d="M584.41,221.88v21.64c-0.27-0.09-0.55-0.19-0.83-0.28V221.6C583.86,221.7,584.13,221.79,584.41,221.88"
								/>
						</g>
					</g>
					<g>
						<polygon class="st30" points="470.45,316.09 470.45,337.72 447.09,315.58 447.09,293.94 						"/>
					</g>
					<g class="st13">
						<defs>
							<path id="SVGID_25_" class="st13" d="M682.63,248.3v21.64c0,31.23-88.47,57.81-212.18,67.79v-21.64
								C594.16,306.11,682.63,279.53,682.63,248.3z"/>
						</defs>
						<clipPath id="SVGID_26_">
							<use xlink:href="#SVGID_25_"  style="overflow:visible;"/>
						</clipPath>
						<g class="st46">
							<path class="st47" d="M682.63,248.3v21.64c0,0.14,0,0.27-0.01,0.41v-21.64C682.63,248.57,682.63,248.44,682.63,248.3"/>
							<path class="st25" d="M682.63,248.71v21.64c-0.02,1.01-0.14,2.02-0.35,3.02v-21.64C682.48,250.73,682.6,249.72,682.63,248.71
								"/>
							<path class="st25" d="M682.28,251.73v21.64c-0.23,1.11-0.57,2.21-1.03,3.3v-21.64C681.7,253.94,682.04,252.84,682.28,251.73"
								/>
							<path class="st25" d="M681.25,255.03v21.64c-0.54,1.3-1.23,2.59-2.07,3.87v-21.64C680.02,257.63,680.71,256.33,681.25,255.03
								"/>
							<path class="st25" d="M679.18,258.91v21.64c-1.34,2.03-3.05,4.04-5.12,6.01v-21.64
								C676.13,262.94,677.84,260.94,679.18,258.91"/>
							<path class="st25" d="M674.06,264.92v21.64c-7.93,7.54-21.14,14.63-38.71,21.04v-21.64
								C652.91,279.54,666.12,272.46,674.06,264.92"/>
							<path class="st25" d="M635.35,285.96v21.64c-14.67,5.36-32.38,10.26-52.59,14.57v-21.64
								C602.96,296.22,620.67,291.32,635.35,285.96"/>
							<path class="st25" d="M582.76,300.53v21.64c-22.23,4.74-47.49,8.77-75.06,11.94v-21.64
								C535.26,309.3,560.52,305.27,582.76,300.53"/>
							<path class="st25" d="M507.7,312.46v21.64c-12,1.38-24.43,2.59-37.24,3.62v-21.64C483.27,315.05,495.7,313.84,507.7,312.46"
								/>
						</g>
					</g>
					<g>
						<path class="st33" d="M624.24,206.86c36.78,11.72,58.4,26.01,58.4,41.44c0,31.23-88.47,57.81-212.18,67.79l-23.37-22.14
							c41.6-3.18,79.66-8.64,110.21-15.98c39.58-9.51,63.21-21.42,63.21-31.89c0-7.88-13.41-16.58-36.93-24.46L624.24,206.86z"/>
					</g>
				</g>
			</g>
			<g>
				<g class="st13">
					<g class="st13">
						<defs>
							<path id="SVGID_27_" class="st13" d="M426.18,391.46l-0.71,7.32c-0.38,3.99-3.52,7.82-8.97,11.35
								c-5.48,3.54-13.31,6.77-23.01,9.53c-9.76,2.77-21.41,5.07-34.48,6.73c-13.12,1.67-27.65,2.69-43.08,2.92
								c-0.47,0.01-0.94,0.01-1.41,0.02c-0.47,0.01-0.94,0.01-1.41,0.01c-0.47,0-0.94,0.01-1.41,0.01c-0.47,0-0.94,0-1.41,0
								c-16,0.03-31.37-0.82-45.46-2.39c-14.08-1.57-26.85-3.85-37.68-6.68c-10.79-2.82-19.62-6.19-25.89-9.94
								c-6.23-3.73-9.92-7.83-10.46-12.14c-0.01-0.11-0.03-0.23-0.04-0.34c-0.01-0.11-0.02-0.23-0.02-0.34
								c-0.01-0.11-0.01-0.23-0.01-0.34c0-0.11,0-0.23,0-0.34l0.21-7.4c0,0.11,0,0.23,0,0.34s0,0.23,0.01,0.34
								c0.01,0.11,0.01,0.23,0.02,0.34c0.01,0.11,0.02,0.23,0.04,0.34c0.55,4.3,4.24,8.38,10.49,12.1
								c6.28,3.74,15.13,7.1,25.95,9.91c10.85,2.83,23.65,5.1,37.76,6.67c14.13,1.57,29.53,2.42,45.56,2.39c0.47,0,0.94,0,1.41,0
								c0.47,0,0.94-0.01,1.41-0.01c0.47,0,0.94-0.01,1.41-0.01c0.47-0.01,0.94-0.01,1.42-0.02c15.46-0.22,30.02-1.24,43.17-2.89
								c13.1-1.65,24.77-3.93,34.55-6.69c9.73-2.74,17.56-5.96,23.06-9.49C422.66,399.26,425.8,395.44,426.18,391.46z"/>
						</defs>
						<clipPath id="SVGID_28_">
							<use xlink:href="#SVGID_27_"  style="overflow:visible;"/>
						</clipPath>
						<g class="st48">
							<path class="st49" d="M426.18,391.46l-0.71,7.32c-0.01,0.11-0.02,0.23-0.04,0.34c-0.02,0.11-0.03,0.23-0.05,0.34
								s-0.04,0.23-0.07,0.34c-0.02,0.11-0.05,0.23-0.08,0.34l0.71-7.33c0.03-0.11,0.06-0.23,0.08-0.34
								c0.02-0.11,0.05-0.23,0.07-0.34c0.02-0.11,0.04-0.23,0.05-0.34C426.16,391.69,426.17,391.58,426.18,391.46"/>
							<path class="st49" d="M425.94,392.83l-0.71,7.33c-0.04,0.14-0.07,0.27-0.11,0.41c-0.04,0.14-0.09,0.27-0.13,0.41
								c-0.05,0.14-0.1,0.27-0.15,0.41s-0.11,0.27-0.17,0.41l0.71-7.33c0.06-0.14,0.12-0.27,0.17-0.41
								c0.05-0.14,0.11-0.27,0.15-0.41c0.05-0.14,0.09-0.27,0.13-0.41C425.87,393.1,425.91,392.96,425.94,392.83"/>
							<path class="st49" d="M425.37,394.46l-0.71,7.33c-0.06,0.14-0.13,0.29-0.2,0.43s-0.15,0.29-0.23,0.43
								c-0.08,0.14-0.16,0.28-0.25,0.43c-0.09,0.14-0.17,0.28-0.27,0.42l0.7-7.34c0.09-0.14,0.18-0.28,0.27-0.42
								c0.09-0.14,0.17-0.28,0.25-0.42c0.08-0.14,0.15-0.28,0.23-0.43C425.23,394.74,425.3,394.6,425.37,394.46"/>
							<path class="st49" d="M424.42,396.16l-0.7,7.34c-0.1,0.16-0.21,0.31-0.32,0.47c-0.11,0.15-0.23,0.31-0.34,0.46
								c-0.12,0.15-0.24,0.31-0.37,0.46c-0.13,0.15-0.26,0.31-0.39,0.46l0.7-7.35c0.14-0.15,0.27-0.3,0.39-0.46
								c0.13-0.15,0.25-0.31,0.37-0.46c0.12-0.15,0.23-0.31,0.34-0.46C424.21,396.47,424.32,396.31,424.42,396.16"/>
							<path class="st49" d="M422.99,398l-0.7,7.35c-0.17,0.19-0.35,0.38-0.53,0.57c-0.18,0.19-0.37,0.38-0.57,0.57
								c-0.2,0.19-0.4,0.38-0.61,0.56c-0.21,0.19-0.42,0.37-0.64,0.56l0.7-7.36c0.22-0.19,0.44-0.37,0.64-0.56
								c0.21-0.19,0.41-0.37,0.61-0.56c0.2-0.19,0.39-0.38,0.57-0.57C422.65,398.38,422.82,398.19,422.99,398"/>
							<path class="st49" d="M420.65,400.26l-0.7,7.36c-0.31,0.26-0.63,0.52-0.96,0.78c-0.33,0.26-0.68,0.51-1.03,0.77
								c-0.36,0.25-0.73,0.51-1.11,0.76c-0.38,0.25-0.77,0.5-1.18,0.75l0.69-7.37c0.4-0.25,0.8-0.5,1.18-0.75
								c0.38-0.25,0.75-0.5,1.11-0.76c0.36-0.25,0.7-0.51,1.04-0.76C420.02,400.77,420.34,400.51,420.65,400.26"/>
							<path class="st49" d="M416.36,403.29l-0.69,7.37c-0.85,0.52-1.75,1.04-2.7,1.54c-0.95,0.51-1.95,1.01-3,1.5
								c-1.05,0.49-2.15,0.98-3.29,1.45c-1.15,0.48-2.34,0.94-3.58,1.4l0.67-7.4c1.24-0.46,2.44-0.92,3.58-1.39
								c1.15-0.47,2.25-0.95,3.3-1.44c1.05-0.49,2.05-0.99,3.01-1.49C414.6,404.32,415.51,403.81,416.36,403.29"/>
							<path class="st49" d="M403.76,409.16l-0.67,7.4c-1.48,0.55-3.02,1.08-4.62,1.6c-1.6,0.52-3.27,1.02-5,1.51
								c-1.73,0.49-3.51,0.97-5.36,1.43c-1.85,0.46-3.75,0.9-5.7,1.33l0.63-7.43c1.96-0.43,3.87-0.87,5.71-1.33
								c1.85-0.46,3.64-0.93,5.37-1.42c1.73-0.49,3.4-0.99,5.01-1.51C400.74,410.23,402.28,409.7,403.76,409.16"/>
							<path class="st49" d="M383.05,415l-0.63,7.43c-2.83,0.62-5.77,1.2-8.82,1.75c-3.05,0.55-6.2,1.06-9.46,1.52
								c-3.26,0.47-6.61,0.9-10.05,1.28c-3.44,0.39-6.98,0.73-10.59,1.02l0.55-7.46c3.62-0.29,7.16-0.63,10.61-1.02
								c3.45-0.38,6.81-0.81,10.07-1.27c3.26-0.47,6.42-0.97,9.48-1.51C377.27,416.19,380.21,415.61,383.05,415"/>
							<path class="st49" d="M344.06,420.54l-0.55,7.46c-2.19,0.18-4.41,0.34-6.65,0.49c-2.25,0.15-4.52,0.27-6.82,0.38
								c-2.3,0.11-4.63,0.2-6.98,0.27c-2.35,0.07-4.72,0.13-7.12,0.16c-0.12,0-0.23,0-0.35,0.01s-0.23,0-0.35,0
								c-0.12,0-0.23,0-0.35,0s-0.23,0-0.35,0l0.49-7.48c0.12,0,0.24,0,0.35,0c0.12,0,0.24,0,0.35,0s0.24,0,0.35,0s0.24,0,0.35,0
								c2.4-0.03,4.78-0.09,7.13-0.16c2.35-0.07,4.69-0.16,6.99-0.27c2.3-0.11,4.58-0.24,6.84-0.38
								C339.64,420.88,341.86,420.72,344.06,420.54"/>
							<path class="st49" d="M315.02,421.85l-0.49,7.48c-0.35,0-0.71,0.01-1.06,0.01c-0.35,0-0.71,0.01-1.06,0.01
								c-0.35,0-0.71,0-1.06,0.01c-0.35,0-0.7,0-1.06,0c-1.7,0-3.39,0-5.08-0.02c-1.69-0.02-3.36-0.04-5.03-0.08
								c-1.67-0.04-3.33-0.08-4.98-0.14c-1.65-0.05-3.3-0.12-4.93-0.19l0.43-7.48c1.64,0.07,3.28,0.14,4.94,0.19
								c1.66,0.06,3.32,0.1,4.99,0.14c1.67,0.04,3.36,0.06,5.04,0.08c1.69,0.02,3.39,0.02,5.09,0.02c0.35,0,0.7,0,1.06,0
								c0.35,0,0.71,0,1.06-0.01c0.35,0,0.71,0,1.06-0.01C314.31,421.86,314.66,421.86,315.02,421.85"/>
							<path class="st49" d="M290.71,421.45l-0.43,7.48c-1.71-0.08-3.42-0.16-5.11-0.26c-1.69-0.1-3.37-0.2-5.03-0.32
								c-1.66-0.12-3.32-0.24-4.95-0.38c-1.64-0.14-3.26-0.28-4.87-0.43l0.39-7.49c1.61,0.15,3.24,0.3,4.88,0.43
								c1.64,0.14,3.3,0.26,4.96,0.38c1.67,0.12,3.35,0.22,5.04,0.32C287.29,421.28,288.99,421.37,290.71,421.45"/>
							<path class="st49" d="M270.7,420.05l-0.39,7.49c-1.43-0.14-2.84-0.28-4.25-0.43c-1.4-0.15-2.79-0.31-4.17-0.47
								c-1.38-0.17-2.74-0.34-4.09-0.52c-1.35-0.18-2.69-0.36-4.01-0.56l0.36-7.49c1.32,0.19,2.66,0.38,4.02,0.56
								c1.35,0.18,2.72,0.35,4.1,0.52c1.38,0.17,2.77,0.32,4.18,0.47C267.85,419.77,269.27,419.92,270.7,420.05"/>
							<path class="st49" d="M254.15,418.07l-0.36,7.49c-1.18-0.17-2.36-0.35-3.52-0.53c-1.16-0.18-2.31-0.37-3.45-0.56
								c-1.14-0.19-2.26-0.39-3.37-0.59c-1.11-0.2-2.21-0.41-3.29-0.62l0.33-7.48c1.09,0.21,2.19,0.42,3.3,0.62
								c1.11,0.2,2.24,0.4,3.38,0.59c1.14,0.19,2.29,0.38,3.45,0.56C251.79,417.73,252.96,417.9,254.15,418.07"/>
							<path class="st49" d="M240.5,415.76l-0.33,7.48c-0.98-0.19-1.95-0.39-2.9-0.59c-0.96-0.2-1.9-0.4-2.84-0.61
								c-0.93-0.21-1.85-0.42-2.76-0.63c-0.91-0.21-1.81-0.43-2.69-0.66l0.3-7.48c0.89,0.22,1.79,0.44,2.7,0.65
								c0.91,0.21,1.84,0.43,2.77,0.63c0.94,0.21,1.88,0.41,2.84,0.61C238.54,415.38,239.51,415.57,240.5,415.76"/>
							<path class="st49" d="M229.28,413.28l-0.3,7.48c-0.82-0.21-1.64-0.42-2.44-0.63c-0.8-0.21-1.59-0.43-2.37-0.65
								c-0.78-0.22-1.55-0.44-2.3-0.67c-0.76-0.22-1.5-0.45-2.23-0.68l0.28-7.47c0.73,0.23,1.48,0.46,2.24,0.68
								c0.76,0.22,1.53,0.45,2.31,0.66c0.78,0.22,1.57,0.43,2.38,0.65C227.64,412.86,228.45,413.07,229.28,413.28"/>
							<path class="st49" d="M219.91,410.66l-0.28,7.47c-0.71-0.22-1.4-0.45-2.09-0.68c-0.69-0.23-1.36-0.46-2.02-0.69
								c-0.66-0.23-1.31-0.47-1.95-0.71c-0.64-0.24-1.27-0.48-1.88-0.72l0.26-7.46c0.62,0.24,1.25,0.48,1.89,0.72
								c0.64,0.24,1.29,0.47,1.96,0.7c0.66,0.23,1.34,0.46,2.03,0.69C218.5,410.22,219.2,410.44,219.91,410.66"/>
							<path class="st49" d="M211.94,407.88l-0.26,7.46c-0.65-0.26-1.29-0.51-1.91-0.77c-0.62-0.26-1.23-0.52-1.83-0.79
								c-0.6-0.27-1.18-0.53-1.74-0.8c-0.57-0.27-1.12-0.54-1.66-0.82l0.25-7.45c0.54,0.27,1.09,0.55,1.66,0.82
								c0.57,0.27,1.15,0.54,1.75,0.8c0.6,0.27,1.21,0.53,1.83,0.79C210.65,407.37,211.29,407.62,211.94,407.88"/>
							<path class="st49" d="M204.79,404.7l-0.25,7.45c-2.06-1.05-3.91-2.14-5.53-3.25c-1.62-1.11-3.02-2.26-4.19-3.43
								c-1.16-1.17-2.09-2.36-2.76-3.57c-0.67-1.21-1.1-2.45-1.25-3.7c-0.01-0.11-0.03-0.23-0.04-0.34
								c-0.01-0.11-0.02-0.23-0.02-0.34c-0.01-0.11-0.01-0.23-0.01-0.34c0-0.11,0-0.23,0-0.34l0.21-7.4c0,0.11,0,0.23,0,0.34
								s0,0.23,0.01,0.34c0.01,0.11,0.01,0.23,0.02,0.34c0.01,0.11,0.02,0.23,0.04,0.34c0.16,1.25,0.58,2.48,1.26,3.68
								c0.68,1.21,1.6,2.4,2.77,3.56c1.17,1.17,2.57,2.3,4.2,3.41C200.87,402.57,202.72,403.65,204.79,404.7"/>
						</g>
					</g>
					<g>
						<path class="st50" d="M307.79,358.43c15.21,0.03,29.83,0.84,43.27,2.3c13.46,1.46,25.78,3.57,36.37,6.19
							c10.63,2.63,19.54,5.78,26.13,9.31c6.62,3.55,10.91,7.49,12.23,11.69c1.37,4.35-0.58,8.57-5.31,12.47
							c-4.76,3.93-12.33,7.53-22.15,10.62c-9.88,3.11-22.03,5.69-35.86,7.56c-13.89,1.88-29.45,3.03-46.05,3.27
							c-0.47,0.01-0.94,0.01-1.42,0.02c-0.47,0.01-0.94,0.01-1.41,0.01c-0.47,0-0.94,0.01-1.41,0.01c-0.47,0-0.94,0-1.41,0
							c-16.03,0.02-31.44-0.83-45.56-2.39c-14.11-1.57-26.91-3.84-37.76-6.67c-10.81-2.82-19.67-6.18-25.95-9.91
							c-6.25-3.72-9.94-7.81-10.49-12.1c-0.56-4.39,2.22-8.59,7.7-12.41c5.44-3.8,13.54-7.24,23.68-10.14
							c10.08-2.89,22.19-5.26,35.74-6.94c13.49-1.68,28.44-2.68,44.27-2.85c0.45,0,0.9-0.01,1.35-0.01c0.45,0,0.9-0.01,1.35-0.01
							c0.45,0,0.9,0,1.34,0C306.89,358.43,307.34,358.43,307.79,358.43z"/>
					</g>
				</g>
			</g>
			<g>
				<g class="st13">
					<g>
						<polygon class="st18" points="353.83,367.9 352.06,390.45 272.44,361.85 273.54,339.62 						"/>
					</g>
					<g class="st13">
						<defs>
							<path id="SVGID_29_" class="st13" d="M427.5,369.41l-2.35,22.49c-0.4,3.78-3.59,7.42-9.14,10.77
								c-5.59,3.37-13.56,6.45-23.46,9.08c-9.96,2.65-21.85,4.84-35.18,6.43c-13.39,1.6-28.22,2.58-43.96,2.8
								c-0.19,0-0.38,0.01-0.57,0.01s-0.37,0-0.56,0s-0.37,0-0.56,0c-0.19,0-0.38,0-0.57,0l1.49-23.03c0.19,0,0.38,0,0.57,0
								c0.19,0,0.38,0,0.57,0c0.19,0,0.38,0,0.57,0c0.19,0,0.38,0,0.57-0.01c15.87-0.2,30.82-1.16,44.32-2.72
								c13.44-1.55,25.43-3.7,35.46-6.3c9.97-2.58,18-5.6,23.62-8.92C423.9,376.73,427.11,373.14,427.5,369.41z"/>
						</defs>
						<clipPath id="SVGID_30_">
							<use xlink:href="#SVGID_29_"  style="overflow:visible;"/>
						</clipPath>
						<g class="st51">
							<path class="st41" d="M427.5,369.41l-2.35,22.49c0,0.02,0,0.03-0.01,0.05c0,0.02,0,0.03-0.01,0.05s0,0.03-0.01,0.05
								c0,0.02,0,0.03-0.01,0.05l2.35-22.49c0-0.02,0-0.03,0.01-0.05s0-0.03,0.01-0.05c0-0.02,0-0.03,0.01-0.05
								C427.5,369.45,427.5,369.43,427.5,369.41"/>
							<path class="st52" d="M427.48,369.6l-2.35,22.49c-0.02,0.15-0.04,0.29-0.07,0.44s-0.06,0.29-0.09,0.44
								c-0.04,0.15-0.08,0.29-0.12,0.43c-0.04,0.14-0.09,0.29-0.14,0.43l2.36-22.52c0.05-0.14,0.1-0.28,0.14-0.43
								c0.04-0.14,0.08-0.29,0.12-0.43c0.04-0.14,0.07-0.29,0.09-0.43C427.44,369.89,427.46,369.74,427.48,369.6"/>
							<path class="st25" d="M427.05,371.32l-2.36,22.52c-0.05,0.15-0.11,0.29-0.17,0.44c-0.06,0.15-0.13,0.29-0.19,0.43
								c-0.07,0.14-0.14,0.29-0.22,0.43c-0.08,0.14-0.16,0.29-0.24,0.43l2.35-22.54c0.09-0.14,0.17-0.28,0.24-0.42
								c0.08-0.14,0.15-0.28,0.22-0.43c0.07-0.14,0.13-0.29,0.19-0.43C426.94,371.6,427,371.46,427.05,371.32"/>
							<path class="st25" d="M426.22,373.03l-2.35,22.54c-0.09,0.16-0.19,0.31-0.29,0.47c-0.1,0.15-0.21,0.31-0.32,0.46
								c-0.11,0.15-0.23,0.31-0.35,0.46c-0.12,0.15-0.25,0.31-0.38,0.46l2.35-22.57c0.13-0.15,0.26-0.3,0.38-0.45
								c0.12-0.15,0.24-0.3,0.35-0.45c0.11-0.15,0.22-0.3,0.32-0.46C426.03,373.33,426.13,373.18,426.22,373.03"/>
							<path class="st25" d="M424.88,374.85l-2.35,22.57c-0.15,0.17-0.3,0.34-0.45,0.51c-0.16,0.17-0.32,0.34-0.49,0.51
								c-0.17,0.17-0.34,0.34-0.52,0.51c-0.18,0.17-0.37,0.34-0.56,0.5l2.34-22.6c0.19-0.16,0.38-0.33,0.56-0.49
								c0.18-0.17,0.36-0.33,0.53-0.5c0.17-0.17,0.33-0.33,0.49-0.5C424.58,375.18,424.74,375.02,424.88,374.85"/>
							<path class="st25" d="M422.85,376.85l-2.34,22.6c-0.23,0.2-0.47,0.4-0.71,0.6c-0.24,0.2-0.5,0.4-0.76,0.59
								c-0.26,0.2-0.53,0.39-0.81,0.59c-0.28,0.19-0.56,0.39-0.85,0.58l2.32-22.64c0.29-0.19,0.58-0.38,0.86-0.57
								c0.28-0.19,0.55-0.38,0.81-0.58c0.26-0.19,0.52-0.39,0.76-0.58C422.38,377.24,422.62,377.04,422.85,376.85"/>
							<path class="st25" d="M419.7,379.17l-2.32,22.64c-0.39,0.26-0.79,0.51-1.21,0.76c-0.42,0.25-0.84,0.5-1.29,0.75
								c-0.44,0.25-0.9,0.5-1.37,0.74c-0.47,0.25-0.95,0.49-1.45,0.73l2.28-22.69c0.5-0.24,0.98-0.48,1.46-0.72
								c0.47-0.24,0.93-0.49,1.38-0.73c0.45-0.25,0.88-0.49,1.29-0.74C418.9,379.67,419.31,379.42,419.7,379.17"/>
							<path class="st25" d="M414.36,382.12l-2.28,22.69c-1.04,0.51-2.14,1.02-3.3,1.51c-1.16,0.5-2.37,0.98-3.63,1.46
								c-1.27,0.48-2.59,0.95-3.96,1.4c-1.37,0.46-2.8,0.91-4.27,1.35l2.17-22.79c1.49-0.43,2.92-0.87,4.3-1.32
								c1.38-0.45,2.71-0.91,3.99-1.38c1.27-0.47,2.49-0.95,3.66-1.43C412.2,383.11,413.31,382.62,414.36,382.12"/>
							<path class="st25" d="M399.09,387.74l-2.17,22.79c-1.63,0.48-3.32,0.95-5.07,1.41c-1.75,0.46-3.56,0.9-5.42,1.33
								c-1.87,0.43-3.79,0.84-5.76,1.24c-1.98,0.4-4.01,0.78-6.09,1.15l2-22.88c2.1-0.36,4.14-0.74,6.14-1.13
								c1.99-0.39,3.93-0.8,5.81-1.22c1.88-0.42,3.7-0.86,5.46-1.31C395.75,388.67,397.45,388.21,399.09,387.74"/>
							<path class="st25" d="M376.58,392.77l-2,22.88c-2.76,0.49-5.61,0.95-8.55,1.38c-2.94,0.43-5.96,0.83-9.06,1.19
								c-3.1,0.37-6.28,0.7-9.53,1c-3.25,0.3-6.57,0.56-9.96,0.79l1.7-22.99c3.41-0.22,6.76-0.48,10.04-0.77
								c3.28-0.29,6.48-0.62,9.61-0.97c3.12-0.36,6.17-0.75,9.13-1.17C370.92,393.7,373.79,393.25,376.58,392.77"/>
							<path class="st25" d="M339.18,397.03l-1.7,22.99c-1.93,0.13-3.88,0.25-5.85,0.35c-1.97,0.11-3.96,0.2-5.97,0.28
								c-2.01,0.08-4.03,0.15-6.08,0.21c-2.04,0.06-4.1,0.1-6.18,0.13c-0.04,0-0.07,0-0.11,0c-0.04,0-0.07,0-0.11,0
								c-0.04,0-0.07,0-0.11,0c-0.04,0-0.07,0-0.11,0l1.5-23.03c0.04,0,0.07,0,0.11,0s0.07,0,0.11,0s0.07,0,0.11,0
								c0.04,0,0.07,0,0.11,0c2.09-0.03,4.17-0.07,6.23-0.12c2.06-0.05,4.1-0.12,6.13-0.2c2.02-0.08,4.03-0.17,6.02-0.27
								C335.27,397.27,337.24,397.16,339.18,397.03"/>
							<path class="st25" d="M314.48,397.96l-1.5,23.03c-0.15,0-0.3,0-0.45,0c-0.15,0-0.3,0-0.45,0s-0.3,0-0.45,0
								c-0.15,0-0.3,0-0.46,0l1.49-23.03c0.15,0,0.31,0,0.46,0c0.15,0,0.31,0,0.46,0c0.15,0,0.3,0,0.46,0
								C314.17,397.97,314.32,397.97,314.48,397.96"/>
						</g>
					</g>
					<g>
						<path class="st24" d="M306.95,338.52c15.48,0.03,30.35,0.79,44.02,2.15c13.69,1.36,26.22,3.33,37,5.77
							c10.82,2.45,19.9,5.39,26.62,8.69c6.76,3.32,11.15,7.01,12.5,10.94c1.4,4.08-0.58,8.04-5.41,11.7
							c-4.87,3.69-12.62,7.08-22.69,9.99c-10.14,2.93-22.6,5.36-36.8,7.13c-14.27,1.77-30.24,2.86-47.29,3.07
							c-0.19,0-0.38,0-0.57,0.01c-0.19,0-0.38,0-0.57,0c-0.19,0-0.38,0-0.57,0c-0.19,0-0.38,0-0.57,0l41.19-30.07l-80.29-28.28
							c2.23-0.15,4.49-0.29,6.77-0.42c2.28-0.12,4.59-0.23,6.92-0.32c2.33-0.09,4.69-0.17,7.06-0.22c2.38-0.06,4.78-0.1,7.19-0.12
							c0.46,0,0.91-0.01,1.37-0.01c0.46,0,0.91-0.01,1.37-0.01s0.91,0,1.36,0S306.5,338.52,306.95,338.52z"/>
					</g>
				</g>
			</g>
		</g>
		<g>
			
				<ellipse transform="matrix(0.0562 -0.9984 0.9984 0.0562 161.0658 772.8853)" class="st2" cx="489.34" cy="301.25" rx="20.33" ry="35.18"/>
			<g id="Men_4_4_">
				<path class="st4" d="M521.57,166.81c0,0-1.83,14.87-3.97,16.88c-2.14,2.02-8.75,3.14-8.75,3.14l-5.57,8.1
					c0,0,6.22-26.41,7.19-26.99S521.57,166.81,521.57,166.81z"/>
				<path id="_Контур__3_" class="st9" d="M512.71,149.69c2.63-1.05,5.63,0.05,6.97,2.54c1.7,3.22,3.04,13.97,3.12,15.81
					c0,0-2.83,3.49-6.75,2.65L512.71,149.69z"/>
				<path class="st6" d="M489.28,297.73c-2.81,0.6-5.75,0.08-8.18-1.46c-1.99-0.11-12.51-5.25-14.18-1.48
					c-1.47,3.33,3.01,6.73,5.47,7.47c5.37,1.62,9.25,4.57,11.4,5.19c1.61,0.42,3.71,0.77,5.08-0.44
					C490.51,305.54,490.69,299.84,489.28,297.73z"/>
				<path class="st7" d="M483.84,306.47c-2.16-0.58-6.04-3.52-11.4-5.19c-2.05-0.62-5.53-3.11-5.72-5.85c-0.66,3.1,3.4,6.1,5.67,6.8
					c5.37,1.62,9.25,4.57,11.4,5.19c1.61,0.42,3.71,0.77,5.08-0.44c0.36-0.35,0.63-0.78,0.78-1.26
					C487.94,306.87,485.79,307.15,483.84,306.47z"/>
				<path class="st6" d="M506.35,293.43c-2.81,0.61-5.75,0.09-8.18-1.46c-1.98-0.11-12.51-5.25-14.18-1.48
					c-1.47,3.33,3.01,6.73,5.48,7.48c5.36,1.62,9.23,4.56,11.39,5.19c1.61,0.44,3.71,0.77,5.08-0.43
					C507.53,301.24,507.76,295.54,506.35,293.43z"/>
				<path class="st7" d="M500.91,302.17c-2.16-0.58-6.04-3.52-11.39-5.19c-2.07-0.63-5.53-3.13-5.72-5.87
					c-0.66,3.1,3.39,6.12,5.67,6.8c5.36,1.62,9.23,4.56,11.39,5.19c1.61,0.44,3.71,0.77,5.08-0.43c0.36-0.35,0.63-0.79,0.78-1.27
					C505.01,302.57,502.86,302.86,500.91,302.17z"/>
				<path id="_Контур_2_3_" class="st53" d="M509.24,263.15c-0.24-4.03-0.85-8.03-1.81-11.95c0,0,1.31-10.15,2.21-19.8
					c1.04-10.96,5.38-20.4,2.87-29.32l-33.78,5.56c0,0-0.84,43.89-0.69,49.25c0.01,4.13,0.29,8.26,0.82,12.36
					c1.08,8.59,1.67,27.63,1.67,27.63c3.46,2.27,8.79,0.86,8.79,0.86s1.33-23.79,1.48-29.92c0.14-7.57-0.13-6.93-0.13-6.93
					l2.16-18.55l1.24-9.22c0,0,0.57,6.85,0.79,12.95c0.23,5.32,1.25,10.18,2.11,20.1c0.76,8.62,1.06,26.11,1.06,26.11
					c3.46,2.29,8.35,1.12,8.35,1.12S509.8,270.62,509.24,263.15z"/>
				<path id="_Контур_3_3_" class="st4" d="M510.9,149.77c-2.57-0.01-4.57,0.55-4.81-0.27c-0.21-1.34-0.33-2.69-0.36-4.05
					c0.34-0.74,0.64-1.48,0.64-1.48c3.34-1.81,4.56-5.26,5.21-9.31c1.11-6.92-2.29-13.22-9.21-14.34
					c-6.49-1.06-11.56,3.27-13.21,9.52c-0.85,3.09-2.57,8.95-0.99,14.14c0.88,2.93,2.09,5.28,3.4,5.8c1.3,0.04,2.6-0.01,3.9-0.13
					l0,0l0.4,3.2c0.17,1.25,0.04,1.91-2.51,3.28c-2.56,1.37,3.48,4.86,7.55,4.79c4.07-0.07,8.75-2.27,10.15-4.82
					C512.62,153.22,512.67,149.8,510.9,149.77z"/>
				<path id="_Контур_4_3_" class="st5" d="M507.16,149.96c0.62,1.82-1.31,3.9-6.23,5.15c-4.93,1.25-5.25-0.73-5.25-0.73
					c-3.3,1.26-6.53,2.7-9.67,4.32c-3.01,1.86-4.62,7.66-5.52,17.58c-1.1,11.45-2.1,28.49-1.88,31.46c0,0,5.13,5.71,12.1,5.53
					c6.97-0.18,18.94-5.66,22.04-10.26c0.56-10.07-0.6-11.78,1.36-17.5c4.47-13.07,6.74-18.39,5.42-27.32
					c-1.1-7.37-3.12-8.39-6-8.47C511.39,149.68,509.27,149.76,507.16,149.96z"/>
				<path class="st4" d="M484.16,216.91l5.77-39.8l-7.23-4.38l-3.03,2.28l-1.12,35.97l0,0l-0.06,0.98l0,0l-0.07,1.27
					c0,0-0.34,3.01,5.15,6.94c0,0,0.14-0.95,0.28-1.82l0,0l0.22-1.5L484.16,216.91z"/>
				<path id="_Контур_5_6_" class="st9" d="M488.41,156.4c-3.85-0.22-6.4,1.61-7.68,7.49c-1.28,5.88-2.11,10.7-2.11,10.7
					c1.65,2.07,4.04,3.42,6.66,3.78c4.63,0.79,6.14-1.5,6.14-1.5s0.84-6.13,1.33-10.3S493.19,156.67,488.41,156.4z"/>
				<path class="st3" d="M489.44,128.91c0,0-5.52-9.48,7.63-10.62c9.47-0.82,15.17,5.56,15.49,12.16c0.31,6.31-3.9,12.6-6.89,15.02
					c-2.77,0.54-5.64,0.03-8.06-1.44c-0.05-1.72-0.02-3.43,0.11-5.15C497.72,138.89,502.9,129.5,489.44,128.91z"/>
			</g>
		</g>
		<g>
			<g id="Girl_4">
				<path id="_Контур_6_16_" class="st4" d="M251.51,247.36c-3.06,0.69-4.91,3.91-7.91,10.81c-2.54,6.27-3.98,12.94-4.25,19.7
					c0.46,6.69,2.91,12.01,9.26,17.78l3.49-5.64c0,0-6.18-6.12-6.47-12.8c-0.17-3.75,4.91-16.09,4.93-16.39
					C250.58,260.52,251.51,247.36,251.51,247.36z"/>
				<path class="st54" d="M268.94,402.03c2,0.74,4.22,0.57,6.08-0.48c1.63,0.09,11.37-3.1,12.4,0.14c0.88,2.84-3.07,5.19-5.14,5.57
					c-4.51,0.84-7.94,2.87-9.75,3.15c-1.41,0.41-2.94,0.1-4.08-0.82C267.17,408.26,267.6,403.62,268.94,402.03z"/>
				<path class="st7" d="M272.55,409.64c1.82-0.28,5.24-2.31,9.75-3.15c1.73-0.31,4.79-2.02,5.2-4.25c0.26,2.58-3.29,4.66-5.24,5.01
					c-4.51,0.84-7.94,2.87-9.75,3.15c-1.41,0.41-2.94,0.1-4.08-0.82c-0.26-0.32-0.44-0.69-0.53-1.09
					C269.18,409.58,270.91,410.01,272.55,409.64z"/>
				<path class="st54" d="M245.42,388.05c1.73,0.71,3.7,0.53,5.28-0.49c1.51,0.08,11.51-2.96,12.5,0.17c0.86,2.73-2.96,5-4.95,5.36
					c-4.34,0.8-7.64,2.77-9.38,3.03c-1.36,0.4-2.83,0.11-3.94-0.78C243.76,394.06,244.14,389.59,245.42,388.05z"/>
				<path class="st7" d="M248.92,395.38c1.74-0.27,5.04-2.23,9.38-3.03c1.67-0.3,4.65-1.95,5.01-4.08c0.24,2.48-3.2,4.49-5.05,4.82
					c-4.34,0.8-7.64,2.77-9.38,3.03c-1.36,0.4-2.83,0.11-3.94-0.78c-0.25-0.31-0.42-0.67-0.5-1.06
					C245.68,395.34,247.34,395.75,248.92,395.38z"/>
				<path id="_Контур_7_6_" class="st4" d="M243.59,363.64c0.2-3.67,1.04-7.27,2.47-10.65c0,0-0.43-14.8-0.82-24.52
					c-0.57-14.34-2.68-15.86-1.58-24.48c1.02-8,5.87-12.96,7.37-18.33l23.14,3.15c0,0,1.65,6.7,3.52,19.99
					c1.87,13.29,1.16,28.93-0.24,49.62c-0.37,5.33,0.35,10.02-0.72,23.29c-0.71,8.93-1.82,19.84-1.82,19.84
					c-3.57,2.74-5.8,0.45-5.8,0.45s-4.47-26.8-5.01-32.93c-0.44-3.4,0.03-6.85,1.38-10c0,0-1.28-8.42-2.18-15.03
					c-1.14-8.06-4.06-25.52-4.06-25.52s-0.82,26.52-2.28,31.69s-1.9,9.68-3.28,16.73c-1.67,8.53-2.92,21.05-2.92,21.05
					c-3.67,2.05-5.14,0.23-5.14,0.23S243.16,371.15,243.59,363.64z"/>
				<path class="st55" d="M251.03,285.67c-2.57,2.36-7.02,9.73-7.67,21.22c-0.72,12.93,1.31,10.41,1.4,24.72l0.11,14.29
					c0,0,18.89,10.37,33.22,2.53c1.39-2.62,1.36-32.67-0.45-43.45c-1.82-10.78-3.23-16.11-3.23-16.11S256.28,292.64,251.03,285.67z"
					/>
				<path id="_Контур_8_15_" class="st4" d="M252.91,247.3c4.96-0.01,5.39,0.83,5.89-0.9c0.17-0.63,0.69-4.98,0.69-4.98
					c-0.42-0.6-0.8-1.24-1.13-1.9c-5.76-3.99-7.2-11.91-3.21-17.68c2.25-3.26,5.9-5.28,9.85-5.46c6.61-0.33,11.18,4.57,12.11,10.98
					c0.52,3.17,0.88,9.61-1.35,14.62c-1.26,2.84-2.39,4.82-5.01,4.57c-0.87-0.13-1.72-0.33-2.55-0.6c-0.21,1.19-0.33,2.4-0.35,3.62
					c0,1.27-0.26,1.91,2.14,3.58s-4.02,4.46-8.06,3.93c-4.04-0.53-8.49-3.27-9.61-5.96C251.09,248.09,250.56,247.32,252.91,247.3z"
					/>
				<path class="st9" d="M248.02,269.07c0,0-5.52-1.58-7.95-4.22c0,0,3.92-10.31,6.2-12.83c2.27-2.52,3.39,14.55,3.39,14.55
					L248.02,269.07z"/>
				<path id="_Контур_9_9_" class="st5" d="M257.81,247.47c-0.97,1.1-1.16,2.53,2.32,3.62c2.53,0.88,5.28,0.82,7.77-0.15
					c2.72,1.33,5.31,2.9,7.76,4.69c2.46,10.09-0.05,11.22,0.81,18.41c-0.68,3.55-1.8,12.75-2.07,14.84
					c-6.99,4.33-20.58,1.96-23.38-3.21c0.05-1.67-0.02-3.35-0.19-5.01c-2.54-12.11-4.88-15.43-3.47-24.44
					c0.8-5.12,1.34-7.68,4.14-8.86C253.61,247.12,255.73,247.16,257.81,247.47z"/>
				<path id="_Контур_10_7_" class="st4" d="M317.55,289.78c-1.55,0.25-3.09,0.6-4.6,1.04c-1.42,0.65-2.93,1.08-4.47,1.26
					c-1.67,0.18-4.21-0.83-8.55-3.19c-4.74-2.78-8.97-6.36-12.51-10.57c-3.99-5.34-7.5-11.01-10.5-16.95
					c-1.73-3.64-4.14-4.67-6.31-4.1c-2.6,0.7-3.05,3.21-0.46,8.14c3.31,6.42,7.37,12.41,12.1,17.86c3.72,4.18,8.13,7.69,13.04,10.38
					c3.51,2.08,7.29,3.64,11.24,4.63c1.39,0.38,2.3,1.01,4.83,2.06c2.51,1.08,5.25,1.54,7.97,1.34c2.27-0.31,3.07-0.78,3.19-1.34
					s-0.32-0.96-1.37-0.94c-1.67,0.16-3.35,0.03-4.97-0.4c0,0,2.3,0.05,3.69-0.03c1.23-0.07,2.44-0.31,3.61-0.71
					c1.13-0.41,1.63-2.11,0.53-2.11c-1.1,0-1.89,0.27-3.94,0.37c-1.09,0.07-2.18,0.01-3.26-0.18c1.36-0.15,2.71-0.4,4.04-0.76
					c1.09-0.23,2.08-0.77,2.87-1.55c0.4-0.42,0.36-1.5-0.96-1.31c-1.61,0.47-3.26,0.74-4.93,0.81c-1.67-0.09-2.84-0.3-2.62-0.56
					c0.23-0.26,1.2-0.14,2.53-0.8c1.32-0.65,2.11-1.96,1.66-2.63C318.96,288.89,318.94,289.36,317.55,289.78z"/>
				<path class="st9" d="M272.53,271.3c3.93-0.35,7.64-1.98,10.56-4.63l-5.73-8.99c0,0-3.25-4.62-8.01-2.37c0,0-3.52,0.18-0.43,7.67
					C269.96,265.82,271.17,268.6,272.53,271.3z"/>
				<path class="st3" d="M278.51,223.69c-0.35-3.11-3.12-5.38-6.23-5.11c-2.09-1.59-4.68-2.37-7.29-2.2
					c-5.93,0.27-10.01,3.89-12.13,9.71c-1.03,2.91-1.78,5.91-2.24,8.97c-2.52,13.06-7.87,23.24-3.62,27.39
					c4.25,4.15,16.32,7.33,21.56,5.12c5.24-2.21-2.8-25.37,8.03-37.43C279.11,227.33,279.45,225.25,278.51,223.69z"/>
			</g>
		</g>
	</g>
</g>
</svg>
